<svg width="383" height="64" xmlns="http://www.w3.org/2000/svg"><g fill="none"><path d="M382.995 13.896h-16.327V64h-16.394c-.238-4.037-.084-8.11-.113-12.171-.027-4.252 0-8.48 0-12.72V13.99c-5.418-.458-10.704.015-16.161-.306V1.373c.714-.127 1.41-.358 2.115-.361 15.26-.016 30.52-.016 45.782 0 .371.025.74.077 1.103.154l-.005 12.73zM271 64h-14.664c-1.003-11.503-1.568-22.91-1.842-34.946-3.45 11.865-6.753 23.185-10.087 34.592h-9.96c-3.063-11.362-6.13-22.74-9.392-34.858-.711 12.083-1.383 23.453-2.068 35.076H208l3.929-62.8h17.058c3.594 12.187 7.225 24.512 10.809 36.667 3.54-11.855 7.096-23.73 10.669-35.627.103-.343.39-.63.698-1.104h15.853L271 64zm-98 0h-14.07c-3.032-5.894-6.16-11.971-9.283-18.051-3.072-5.987-6.127-11.984-8.925-17.42.08 5.372.2 11.313.242 17.252.043 5.94 0 11.94 0 18.155h-15.879L125 1h14.837c2.822 5.491 5.74 11.121 8.614 16.778 2.875 5.657 5.718 11.342 8.899 17.665V1.019h15.386L173 64zm157-33.329c-.04 5.872-.87 11.553-2.945 17.04-3.088 8.204-9.12 13.167-17.831 14.68-5.329.927-10.737.885-16.034-.75-7.12-2.2-11.91-6.816-14.274-13.61-3.532-10.148-4.017-20.542-.563-30.771 3.213-9.55 10.066-15.223 20.42-16.84 5.623-.88 11.035-.393 16.237 1.628 8.133 3.161 12.095 9.673 13.723 17.681.742 3.586.868 7.29 1.267 10.942zm-36.044 1.24c-.046 4.677.048 9.345 2.105 13.7 1.381 2.925 3.647 4.527 7.087 4.506 3.302-.019 5.47-1.547 6.71-4.402a25.75 25.75 0 0 0 1.481-4.532c1.296-5.691.962-11.48.579-17.215-.158-2.36-1.098-4.774-2.113-6.973-1.317-2.86-3.89-3.987-7.093-3.801-3.786.22-5.784 2.559-7.136 5.67-1.82 4.205-1.61 8.635-1.62 13.044v.003zM66.198 1h16.466c.062 1.456.162 2.77.162 4.084.019 11.752 0 23.5.056 35.253 0 1.704.377 3.411.654 5.105.579 3.551 4.292 5.192 6.935 5.113 3.45-.108 5.793-2.129 6.399-5.699.275-1.834.398-3.687.368-5.54.038-11.38.024-22.76.03-34.142V1.011h16.452c.102 1.092.27 2.04.27 2.984.014 12.742.014 25.483 0 38.223a34.573 34.573 0 0 1-.324 4.807c-1.176 8.311-6.033 13.823-14.32 15.81-6.71 1.606-13.455 1.662-20.118-.528-6.727-2.22-10.6-6.913-12.23-13.475a31.559 31.559 0 0 1-.94-7.335c-.094-12.617-.048-25.234-.04-37.85-.008-.742.092-1.462.18-2.647zM198 64h-14.761L183 1.139c4.97-.245 10.01-.09 14.97-.096L198 64z" fill="#0F1D4A"/><path d="M47 23.493c-.533.197-.8.387-.992.343-10.596-2.362-18.054 2.725-24.43 9.995-2.178 2.484-3.127 5.534-.996 9.169-2.845-.356-4.795-1.598-6.578-2.996-3.784-2.988-6.733-6.495-6.981-11.567a12.132 12.132 0 0 1 3.045-8.792c5.16-5.95 10.47-11.76 15.74-17.632.312-.345.776-.56 1.42-1.013C33.94 8.439 40.759 15.649 47 23.493z" fill="#E20612"/><path d="M3.405 28c2.716 14.51 17.57 21.806 29.166 14.75.931 5.056.379 9.788-1.977 14.268-2.264 4.307-8.22 7.042-13.408 5.589C3.226 58.697-4.091 42.255 2.379 29c.138-.288.487-.487 1.026-1.001z" fill="#E20612"/><path d="M27.463 63C37.114 50.186 36.98 41.328 27 29.48c1.695-2.107 4.173-3.16 6.661-3.717a29.414 29.414 0 0 1 8.617-.698c4.002.319 6.13 3.267 7.39 6.642 3.953 10.601-1.184 23.163-11.56 28.4C34.85 61.75 31.446 62.966 27.463 63z" fill="#E20612"/></g></svg>