<?xml version="1.0" encoding="UTF-8"?> <!-- Generator: Adobe Illustrator 23.0.2, SVG Export Plug-In . SVG Version: 6.00 Build 0) --> <svg xmlns="http://www.w3.org/2000/svg" xmlns:xlink="http://www.w3.org/1999/xlink" id="Layer_1" x="0px" y="0px" viewBox="0 0 282 282" style="enable-background:new 0 0 282 282;" xml:space="preserve"> <metadata><?xpacket begin="﻿" id="W5M0MpCehiHzreSzNTczkc9d"?> <?xpacket end="w"?></metadata> <g> <path d="M141,0C63.3,0,0,63.3,0,141c0,77.8,63.3,141,141,141c77.8,0,141-63.3,141-141C282,63.3,218.7,0,141,0L141,0z M141,259.3 c-65.2,0-118.3-53-118.3-118.3C22.7,75.8,75.8,22.7,141,22.7c65.2,0,118.3,53.1,118.3,118.3C259.3,206.2,206.2,259.3,141,259.3 L141,259.3z M141,259.3"></path> <path d="M199.9,79.9l-79.8,81.9l-24.1-24.1c-4.5-4.4-11.6-4.4-16.1,0c-4.4,4.4-4.4,11.6,0,16.1l32.1,32.1c2.2,2.2,5.1,3.3,8,3.3 s5.8-1.1,8-3.3L216,96c4.5-4.5,4.5-11.6,0-16.1C211.6,75.5,204.4,75.5,199.9,79.9L199.9,79.9z M199.9,79.9"></path> </g> </svg> 