<svg enable-background="new 0 0 282 282" fill="#fff" viewBox="0 0 282 282" xmlns="http://www.w3.org/2000/svg"><path d="m141 0c-77.7 0-141 63.3-141 141 0 77.8 63.3 141 141 141 77.8 0 141-63.3 141-141s-63.3-141-141-141zm0 259.3c-65.2 0-118.3-53-118.3-118.3 0-65.2 53.1-118.3 118.3-118.3s118.3 53.1 118.3 118.3-53.1 118.3-118.3 118.3zm0 0"/><path d="m199.9 79.9-79.8 81.9-24.1-24.1c-4.5-4.4-11.6-4.4-16.1 0-4.4 4.4-4.4 11.6 0 16.1l32.1 32.1c2.2 2.2 5.1 3.3 8 3.3s5.8-1.1 8-3.3l88-89.9c4.5-4.5 4.5-11.6 0-16.1-4.4-4.4-11.6-4.4-16.1 0zm0 0"/></svg>