<svg clip-rule="evenodd" fill-rule="evenodd" stroke-linejoin="round" stroke-miterlimit="2" viewBox="0 0 512 512" xmlns="http://www.w3.org/2000/svg"><g fill="#181e49" fill-rule="nonzero" transform="matrix(11.907 0 0 11.907 61.7562 3.58019)"><path d="m31.131 15.853-.064-.087-.013-.025-5.806-8.619-5.806 8.619-.012.024-.064.088c-.932 1.262-1.424 2.76-1.424 4.335 0 4.029 3.277 7.306 7.306 7.306s7.306-3.277 7.306-7.306c.001-1.575-.492-3.074-1.423-4.335z"/><path d="m25.248 29.984c-5.401 0-9.796-4.395-9.796-9.796 0-2.1.654-4.101 1.892-5.788l3.817-5.666-5.884-8.734-12.259 18.198c-1.927 2.623-2.946 5.733-2.946 8.996 0 8.384 6.821 15.205 15.205 15.205 7.944 0 14.484-6.124 15.148-13.899-1.503.94-3.277 1.484-5.177 1.484z"/></g></svg>