<svg clip-rule="evenodd" fill-rule="evenodd" stroke-linejoin="round" stroke-miterlimit="2" viewBox="0 0 512 512" xmlns="http://www.w3.org/2000/svg"><g fill="#181e49" fill-rule="nonzero" transform="matrix(15.0588 0 0 15.0588 6.17082 18.3091)"><path d="m24.389 2.126h.49c.524 0 .946-.424.946-.948 0-.523-.425-.947-.946-.947h-.49c-.523 0-.945.424-.945.947 0 .524.422.948.945.948z"/><path d="m15.612 2.126h.488c.523 0 .945-.424.945-.948 0-.523-.424-.947-.945-.947h-.488c-.523 0-.945.424-.945.947 0 .524.424.948.945.948z"/><path d="m11.226 2.126h.488c.525 0 .947-.424.947-.948 0-.523-.424-.947-.947-.947h-.488c-.523 0-.948.424-.948.947 0 .524.422.948.948.948z"/><path d="m20.003 2.126h.488c.523 0 .945-.424.945-.948 0-.523-.424-.947-.945-.947h-.488c-.523 0-.945.424-.945.947 0 .524.422.948.945.948z"/><path d="m28.648 3.073h.486c.525 0 .947-.424.947-.947s-.424-.948-.947-.948h-.486c-.525 0-.947.425-.947.948s.422.947.947.947z"/><path d="m6.34 2.126h.488c.523 0 .947-.424.947-.948 0-.523-.424-.947-.947-.947h-.488c-.523 0-.947.424-.947.947 0 .524.424.948.947.948z"/><path d="m20.632 5.096c0 .523.425.947.948.947h.485c.526 0 .948-.424.948-.947 0-.524-.424-.948-.948-.948h-.483c-.525 0-.95.424-.95.948z"/><path d="m4.026 6.043h.487c.524 0 .948-.424.948-.947 0-.524-.424-.948-.948-.948h-.487c-.524 0-.948.424-.948.948 0 .523.424.947.948.947z"/><path d="m25.021 5.096c0 .523.424.947.947.947h.488c.526 0 .948-.424.948-.947 0-.524-.425-.948-.948-.948h-.488c-.525 0-.947.424-.947.948z"/><path d="m11.858 5.096c0 .523.424.947.945.947h.488c.523 0 .945-.424.945-.947 0-.524-.425-.948-.945-.948h-.488c-.524 0-.945.424-.945.948z"/><path d="m16.244 5.096c0 .523.424.947.947.947h.488c.523 0 .945-.424.945-.947 0-.524-.424-.948-.945-.948h-.488c-.523 0-.947.424-.947.948z"/><path d="m7.467 5.096c0 .523.424.947.945.947h.49c.523 0 .947-.424.947-.947 0-.524-.424-.948-.947-.948h-.49c-.521 0-.945.424-.945.948z"/><path d="m29.409 5.096c0 .523.425.947.948.947h.485c.526 0 .948-.424.948-.947 0-.524-.424-.948-.948-.948h-.485c-.523 0-.948.424-.948.948z"/><path d="m11.238 9.357c0-.523-.425-.948-.948-.948h-.488c-.523 0-.947.425-.947.948s.424.947.947.947h.488c.526 0 .948-.424.948-.947z"/><path d="m14.193 10.304h.488c.523 0 .945-.424.945-.947s-.424-.948-.945-.948h-.488c-.523 0-.947.425-.947.948s.424.947.947.947z"/><path d="m22.968 10.304h.488c.525 0 .947-.424.947-.947s-.424-.948-.947-.948h-.488c-.523 0-.945.425-.945.948s.424.947.945.947z"/><path d="m18.582 10.304h.488c.523 0 .945-.424.945-.947s-.424-.948-.945-.948h-.488c-.526 0-.948.425-.948.948s.422.947.948.947z"/><path d="m30.8 9.357c0 .523.424.947.947.947h.486c.526 0 .947-.424.947-.947s-.424-.948-.947-.948h-.486c-.525 0-.947.425-.947.948z"/><path d="m27.359 10.304h.488c.523 0 .945-.424.945-.947s-.424-.948-.945-.948h-.488c-.526 0-.948.425-.948.948s.422.947.948.947z"/><path d="m6.852 9.357c0-.523-.425-.948-.948-.948h-.488c-.523 0-.947.425-.947.948s.424.947.947.947h.488c.523 0 .948-.424.948-.947z"/><path d="m1.028 10.304h.487c.524 0 .948-.424.948-.947s-.424-.948-.948-.948h-.487c-.524 0-.948.425-.948.948s.424.947.948.947z"/><path d="m3.882 13.46c0-.523-.424-.945-.948-.945h-.485c-.523 0-.948.424-.948.945 0 .526.425.948.948.948h.488c.523 0 .945-.422.945-.948z"/><path d="m29.266 14.408c.523 0 .945-.425.945-.948s-.424-.945-.945-.945h-.488c-.523 0-.945.424-.945.945 0 .526.424.948.945.948z"/><path d="m20.491 14.408c.523 0 .945-.425.945-.948s-.424-.945-.945-.945h-.488c-.523 0-.945.424-.945.945 0 .526.424.948.945.948z"/><path d="m16.1 14.408c.523 0 .945-.425.945-.948s-.424-.945-.945-.945h-.488c-.523 0-.945.424-.945.945 0 .526.424.948.945.948z"/><path d="m11.226 14.408h.488c.525 0 .947-.425.947-.948s-.424-.945-.947-.945h-.488c-.523 0-.948.424-.948.945 0 .526.422.948.948.948z"/><path d="m24.879 14.408c.524 0 .946-.425.946-.948s-.425-.945-.946-.945h-.49c-.523 0-.945.424-.945.945 0 .526.424.948.945.948z"/><path d="m6.835 14.408h.49c.523 0 .948-.425.948-.948s-.425-.945-.948-.945h-.49c-.523 0-.947.424-.947.945 0 .526.424.948.947.948z"/><path d="m21.582 18.827h.486c.525 0 .947-.424.947-.945 0-.526-.424-.948-.947-.948h-.486c-.525 0-.947.425-.947.948-.003.523.422.945.947.945z"/><path d="m9.849 17.882c0-.526-.424-.948-.947-.948h-.49c-.523 0-.945.425-.945.948s.424.945.945.945h.49c.523 0 .947-.422.947-.945z"/><path d="m25.968 18.827h.488c.526 0 .948-.424.948-.945 0-.526-.425-.948-.948-.948h-.488c-.525 0-.947.425-.947.948s.422.945.947.945z"/><path d="m17.191 18.827h.488c.523 0 .945-.424.945-.945 0-.526-.424-.948-.945-.948h-.488c-.525 0-.947.425-.947.948s.424.945.947.945z"/><path d="m12.803 18.827h.488c.523 0 .945-.424.945-.945 0-.526-.425-.948-.945-.948h-.488c-.524 0-.945.425-.945.948s.421.945.945.945z"/><path d="m5.461 17.882c0-.526-.424-.948-.948-.948h-.487c-.524 0-.948.425-.948.948s.424.945.948.945h.487c.524 0 .948-.422.948-.945z"/><path d="m31.792 17.882c0-.526-.424-.948-.947-.948h-.486c-.525 0-.947.425-.947.948s.424.945.947.945h.486c.523 0 .947-.422.947-.945z"/><path d="m22.89 22.815h.488c.523 0 .945-.424.945-.945 0-.526-.424-.948-.945-.948h-.488c-.525 0-.947.424-.947.948 0 .521.424.945.947.945z"/><path d="m18.502 22.815h.488c.523 0 .947-.424.947-.945 0-.526-.427-.948-.947-.948h-.488c-.524 0-.945.424-.945.948 0 .521.421.945.945.945z"/><path d="m27.279 22.815h.488c.525 0 .947-.424.947-.945 0-.526-.424-.948-.947-.948h-.488c-.523 0-.945.424-.945.948-.003.521.422.945.945.945z"/><path d="m32.155 20.92h-.488c-.523 0-.945.424-.945.947 0 .524.424.945.945.945h.488c.523 0 .945-.424.945-.945 0-.523-.422-.947-.945-.947z"/><path d="m6.771 21.87c0-.526-.424-.948-.947-.948h-.488c-.523 0-.947.424-.947.948 0 .523.424.945.947.945h.488c.523 0 .947-.424.947-.945z"/><path d="m14.113 22.815h.488c.526 0 .947-.424.947-.945 0-.526-.424-.948-.947-.948h-.488c-.523 0-.945.424-.945.948-.002.521.422.945.945.945z"/><path d="m1.435 20.92h-.488c-.523 0-.947.424-.947.947 0 .524.424.945.947.945h.488c.524 0 .948-.424.948-.945 0-.523-.424-.947-.948-.947z"/><path d="m11.16 21.87c0-.526-.424-.948-.948-.948h-.487c-.524 0-.948.424-.948.948 0 .523.424.945.948.945h.487c.524 0 .948-.424.948-.945z"/><path d="m29.185 25.023h-.485c-.526 0-.948.424-.948.948 0 .523.425.945.948.945h.485c.526 0 .948-.424.948-.945.002-.524-.422-.948-.948-.948z"/><path d="m16.97 25.973c0-.526-.425-.947-.948-.947h-.485c-.526 0-.948.424-.948.947s.424.945.948.945h.485c.523 0 .948-.424.948-.945z"/><path d="m7.245 25.023h-.488c-.523 0-.947.424-.947.948 0 .523.424.945.947.945h.49c.524 0 .948-.424.948-.945-.002-.524-.427-.948-.95-.948z"/><path d="m25.747 25.973c0-.526-.427-.947-.948-.947h-.488c-.525 0-.947.424-.947.947s.424.945.947.945h.488c.524 0 .948-.424.948-.945z"/><path d="m21.358 25.973c0-.526-.424-.947-.947-.947h-.488c-.523 0-.945.424-.945.947s.424.945.945.945h.488c.523 0 .947-.424.947-.945z"/><path d="m12.579 25.973c0-.526-.424-.947-.945-.947h-.488c-.523 0-.948.424-.948.947s.425.945.948.945h.488c.523 0 .945-.424.945-.945z"/><path d="m17.599 29.442h-.488c-.523 0-.945.427-.945.948s.424.947.945.947h.488c.523 0 .947-.426.947-.947s-.424-.948-.947-.948z"/><path d="m26.378 29.442h-.49c-.523 0-.945.427-.945.948s.424.947.945.947h.49c.524 0 .946-.426.946-.947s-.425-.948-.946-.948z"/><path d="m21.988 29.442h-.488c-.524 0-.945.427-.945.948s.424.947.945.947h.488c.523 0 .945-.426.945-.947s-.422-.948-.945-.948z"/><path d="m13.21 29.442h-.487c-.524 0-.946.427-.946.948s.425.947.946.947h.487c.526 0 .948-.426.948-.947s-.422-.948-.948-.948z"/></g></svg>