<svg viewBox="0 0 1355 1355" xmlns="http://www.w3.org/2000/svg" xmlns:serif="http://www.serif.com/" fill-rule="evenodd" clip-rule="evenodd" stroke-linejoin="round" stroke-miterlimit="2"><path d="M693.458 5.208c-61.666 58.4-120.512 118.675-176.525 180.834-55.875 62.237-108.583 126.904-155.087 194.416a1033.183 1033.183 0 0 0-62.833 103.659c-9.121 17.625-17.655 35.437-24.859 53.362-1.896 4.55-3.583 9.259-5.383 13.875l-5.358 14.284-2.784 7.258-2.508 7.004c-1.667 4.688-3.4 9.325-4.929 14.058a658.72 658.72 0 0 0-28.3 113.392 410.042 410.042 0 0 0-4.563 55.663 269.523 269.523 0 0 0 4.129 52.316l.225 1.296.342 3.342a432.403 432.403 0 0 0 17.792 86.029c.979 3.525 2.279 6.958 3.487 10.417l3.65 10.395 4.104 10.213c1.417 3.392 2.625 6.825 4.221 10.192 3.054 6.687 5.863 13.487 9.304 20.016l4.95 9.825 5.359 9.671c3.421 6.525 7.483 12.713 11.221 19.058 1.85 3.209 3.991 6.213 6 9.33a365.572 365.572 0 0 0 6.133 9.233c8.579 12.054 17.379 23.975 27.075 35.212a243.862 243.862 0 0 0 7.183 8.509l7.504 8.233 3.738 4.117 3.925 3.979 7.8 7.942c2.6 2.658 5.404 5.116 8.096 7.708 2.691 2.596 5.358 5.162 8.166 7.575l8.413 7.371 4.2 3.683 4.333 3.525 8.688 7.054c2.896 2.275 5.954 4.55 8.916 6.825 2.967 2.271 5.909 4.546 8.988 6.642l9.121 6.346c1.554 1.066 3.058 2.275 4.562 3.204l4.721 3.004 9.421 6.075c3.146 1.979 6.408 3.796 9.625 5.708 3.212 1.913 6.362 3.913 9.691 5.617a510.515 510.515 0 0 0 81.834 36.396c3.533 1.229 7.112 2.275 10.671 3.412 3.558 1.138 7.116 2.275 10.72 3.321l10.88 2.796 5.404 1.479 5.679 1.296c7.596 1.754 15.167 3.483 22.671 5.004l11.287 2.413 5.634 1.183 5.541.842c7.413 1.071 14.804 2.412 22.238 3.3l22.4 2.275c7.5.429 15.029.679 22.533 1.066 3.763.275 7.525.159 11.4.113h11.404a512.617 512.617 0 0 0 90.204-9.871l11.196-2.413c3.742-.795 7.504-1.5 11.175-2.566 7.367-2.004 14.804-3.846 22.192-5.963l21.942-7.004c7.229-2.571 14.412-5.346 21.666-7.983a546.492 546.492 0 0 0 158.713-96.354 515.78 515.78 0 0 0 65-68.559c5.133-6.054 9.625-12.579 14.279-19.016 2.279-3.23 4.696-6.417 6.954-9.692l6.454-10.029 6.546-10.034c2.283-3.366 4.017-6.825 6.046-10.35 3.875-6.958 8.187-13.783 11.562-21.041l5.384-10.779c1.825-3.596 3.716-7.167 5.221-10.896 3.195-7.392 6.545-14.763 9.625-22.246 3.079-7.483 5.52-15.217 8.437-22.746 2.921-7.529 4.838-15.537 7.3-23.342.571-1.975 1.275-3.912 1.754-5.887l1.438-5.963 2.966-11.941c2.28-7.984 3.534-16.059 5.084-24.179l2.283-12.217c.638-4.046 1.209-8.254 1.825-12.371 1.184-8.258 2.392-16.492 3.079-24.842 1.209 8.28 2.005 16.675 2.621 25.021.275 4.209.592 8.325.821 12.559l.25 12.67c0 8.459.388 16.992-.225 25.45l-.642 12.742-.341 6.392c-.113 2.137-.454 4.229-.684 6.346a445.963 445.963 0 0 1-21.37 100.72c-2.438 8.346-5.859 16.309-8.917 24.475-1.621 4.025-3.034 8.167-4.813 12.146l-5.358 11.921-5.45 11.917c-1.962 3.891-4.063 7.737-6.092 11.604-4.104 7.708-8.075 15.558-12.75 22.95a519.333 519.333 0 0 1-62.445 85.096 574.043 574.043 0 0 1-169.775 128.108 555.631 555.631 0 0 1-100.988 38.667 574.168 574.168 0 0 1-107.263 18.812l-13.683.888c-4.562.296-9.125.637-13.683.591-9.125 0-18.246.25-27.371.159l-27.529-1.296c-9.121-.683-18.246-1.842-27.367-2.775l-6.841-.75-6.659-1.071-13.321-2.275c-4.425-.75-8.916-1.408-13.296-2.275l-13.137-2.479-6.567-1.25-6.708-1.546-13.454-3.137c-4.563-1.025-8.896-2.275-13.342-3.55-4.45-1.275-8.896-2.388-13.296-3.755a587.829 587.829 0 0 1-101.971-41.966 577.407 577.407 0 0 1-92.141-60.642 564.5 564.5 0 0 1-79.096-77.204c-11.996-14.054-22.967-28.979-33.617-44.125-2.6-3.825-5.087-7.737-7.641-11.604-2.555-3.867-5.13-7.688-7.459-11.713-4.721-7.962-9.6-15.925-13.866-24.112a516.322 516.322 0 0 1-62.488-212.383l.567 4.55a373.838 373.838 0 0 1-3.238-73.655 495.368 495.368 0 0 1 8.825-69.97 699.777 699.777 0 0 1 40.05-129.655c2.054-5.187 4.288-10.304 6.525-15.42l3.375-7.759 3.396-7.325 6.846-14.808c2.279-5.05 4.558-10.075 7.137-15.146l7.775-15.242c2.671-5.004 5.455-9.895 8.188-14.854 2.737-4.958 5.612-9.758 8.487-14.579 2.871-4.825 5.7-9.667 8.734-14.333l9.121-14.079 9.329-13.646c3.079-4.55 6.341-9.1 9.533-13.65 3.196-4.55 6.342-9.096 9.696-13.35l9.829-13.15c3.329-4.342 6.842-8.596 10.146-12.896 6.683-8.667 13.687-16.946 20.712-25.342 28.255-33.096 57.609-64.871 88.559-94.783a1447.26 1447.26 0 0 1 46.958-44.129c15.967-14.238 32.067-28.434 48.533-42.104 8.188-6.825 16.559-13.534 24.838-20.313 8.279-6.779 16.65-13.35 25.087-19.858a1858.97 1858.97 0 0 1 51.338-38.192c34.783-24.746 70.317-48.246 107.033-69.717z" fill="#11204d" fill-rule="nonzero"/><path serif:id="Path" d="M983.933 697.917a323.962 323.962 0 0 1-106.583-29.35 339.824 339.824 0 0 1-87.95-59.863A364.301 364.301 0 0 1 686.729 435.6l.913 2.275a377.896 377.896 0 0 1-13.971-56.517c-3.208-18.645-5.304-37.129-6.671-55.475a906.677 906.677 0 0 1-.817-108.875c1.73-35.945 5.142-71.57 9.921-106.854 4.779-35.287 10.9-70.479 18.659-104.946-1.888 35.355-2.071 70.684-.909 105.83 1.159 35.15 3.709 70.254 7.917 104.833A857.764 857.764 0 0 0 719.704 317.7c4.071 16.529 8.759 32.738 14.242 48.288a316.57 316.57 0 0 0 19.137 44.062l.913 2.271a277.871 277.871 0 0 0 99.346 117.312 230.906 230.906 0 0 0 66.241 30.034 199.689 199.689 0 0 0 68.263 6.296l-3.913 131.954z" fill="#11204d" fill-rule="nonzero"/><path serif:id="Path" d="M1232.64 770.654a378.853 378.853 0 0 1-49.975 105.838 420.601 420.601 0 0 1-80.646 89.175 436.71 436.71 0 0 1-104.529 64.221l-14.459 5.837-7.191 2.983c-2.438.888-4.921 1.663-7.38 2.509l-14.775 4.946-7.445 2.458-7.538 2.029a465.33 465.33 0 0 1-187.083 12.875 493.044 493.044 0 0 1-62.138-12.121l-7.696-2.054-7.625-2.279-7.65-2.279-7.583-2.504c-5.079-1.621-10.087-3.488-15.096-5.359-5.008-1.866-9.971-3.871-14.933-5.879a417.388 417.388 0 0 1-111.429-67.25 376.248 376.248 0 0 1-46.996-47.633c-3.663-4.238-6.988-8.821-10.404-13.309l-2.459-3.283-2.275-3.233-9.108-12.992-4.325-6.654c-2.846-4.558-5.829-8.842-8.542-13.425a486.18 486.18 0 0 1-52.071-117.138l-2.275-7.775-1.958-7.837c-1.25-5.267-2.733-10.438-3.733-15.75l-3.213-15.95-2.525-15.954a486.77 486.77 0 0 1-4.737-64.2 534.44 534.44 0 0 1 3.871-63.288 559.962 559.962 0 0 1 11.021-61.533c2.141-10.117 5.125-19.942 7.741-29.875l4.554-14.654 2.275-7.338 2.484-7.204c6.421-19.325 13.887-38.058 21.721-56.517 7.833-18.462 16.529-36.466 25.5-53.991 8.97-17.525 18.441-34.892 28.391-51.734a1156.587 1156.587 0 0 1 63.888-98.291c5.875-7.842 11.612-15.725 17.621-23.404 6.012-7.684 11.933-15.43 18.216-22.93 12.475-14.995 25.046-29.854 38.434-43.983a726.909 726.909 0 0 1 85.129-78.717c-21.038 32.384-41.163 64.634-59.629 97.634-9.246 16.5-18.217 33.046-26.821 49.771-8.609 16.729-16.963 33.479-24.934 50.412-15.937 33.888-30.895 68.075-44.691 102.667-13.8 34.596-26.434 69.171-37.067 103.9-1.346 4.329-2.529 8.683-3.804 13.012-1.275 4.334-2.525 8.638-3.642 12.992l-3.462 12.967-3.096 13.012-1.546 6.496-1.367 6.496-2.733 12.966c-1.479 8.684-3.254 17.3-4.417 25.938-2.8 17.275-4.258 34.504-5.416 51.596l-.525 12.829c-.275 4.262 0 8.5-.138 12.762-.204 8.546.275 16.888.546 25.25a435.717 435.717 0 0 0 5.921 49.48 375.28 375.28 0 0 0 12.087 47.95c2.392 7.883 5.33 15.633 8.175 23.404l4.738 11.508c1.525 3.854 3.437 7.567 5.121 11.396a411.303 411.303 0 0 0 23.612 44.212c2.096 3.625 4.554 7.134 6.829 10.713l3.417 5.333 3.596 5.242 3.621 5.242 1.8 2.62 1.75 2.28c2.279 3.095 4.554 6.266 7.083 9.275a281.583 281.583 0 0 0 32.446 34.183A324.05 324.05 0 0 0 629.49 908.1a375.196 375.196 0 0 0 43.075 24.113 433.48 433.48 0 0 0 95.629 32.179 444.109 444.109 0 0 0 101.862 9.8 434.238 434.238 0 0 0 200.363-54.559 458.384 458.384 0 0 0 88.296-63.812 521.265 521.265 0 0 0 73.925-85.167z" fill="#11204d" fill-rule="nonzero"/><path serif:id="Path" d="M472.221 652.092a359.361 359.361 0 0 0 103.033 91.541 283.288 283.288 0 0 0 30.175 15.346 293.486 293.486 0 0 0 31.359 11.9 320.064 320.064 0 0 0 32.312 8.025 268.868 268.868 0 0 0 32.7 4.013 260.105 260.105 0 0 0 64.967-4.08 271.974 271.974 0 0 0 31.383-7.887l7.638-2.554c2.57-.821 5.05-1.917 7.55-2.85 5.05-1.825 9.916-4.129 14.825-6.25a282.602 282.602 0 0 0 100.17-78.546 298.785 298.785 0 0 0 63.284-144.371l.954-7.867.479-3.92.296-3.946.592-7.867.27-8.05a358.865 358.865 0 0 0-3.841-64.158 388.941 388.941 0 0 0-15.6-62.904 466.656 466.656 0 0 0-25.242-60.742c-2.546-4.904-5.046-9.85-7.662-14.729l-8.096-14.663-17.371-30.687-8.688-15.525-4.391-7.913-4.409-8.187-1.208-2.279-.587-1.188-.663-1.342a55.943 55.943 0 0 1-1.521-3.283l-.662-1.508-.159-.429c.205.408-.27-.596-.841-1.642-.567-1.05-1.271-2.283-1.888-3.4l-8.433-14.979L772.908 0l157.175 158.008c20.1 20.221 40.159 40.65 59.738 61.717 19.579 21.071 38.654 42.775 56.846 65.187 18.191 22.413 35.796 45.6 52.029 69.909a781.74 781.74 0 0 1 44.592 75.125 803.755 803.755 0 0 1 63.329 161.266c3.733 13.934 7.212 27.884 10.166 41.955 1.48 7.02 2.934 14.045 4.163 21.133l1.933 10.558 1.659 10.646c.525 3.538 1.112 7.071 1.591 10.604l1.363 10.646c.458 3.538.933 7.138 1.3 10.579l1.362 10.513c.954 7.066 1.888 14.204 2.275 21.408a80.578 80.578 0 0 1-1.321 21.458 87.026 87.026 0 0 0-2.479-20.933c-1.546-6.837-3.566-13.567-5.662-20.358-2.092-6.796-4.159-13.684-6.025-20.521l-2.888-10.192c-.979-3.375-2.071-6.841-3.091-10.125l-2.934-10.079-3.296-10.029c-2.116-6.704-4.55-13.338-6.825-19.95a847.996 847.996 0 0 0-14.87-39.308 924.571 924.571 0 0 0-75.996-148.205l-5.571-8.733-5.729-8.637-5.709-8.621-5.891-8.484c-7.842-11.4-16.096-22.32-24.534-33.195a955.699 955.699 0 0 0-53.391-63.271 2008.79 2008.79 0 0 0-57.738-60.146 2394.874 2394.874 0 0 0-60.462-58.3l47.137-37.279c3.092 5.062 6.209 10.054 9.325 15.412.817 1.413 1.546 2.575 2.454 4.242.909 1.662 1.775 3.1 3.205 6.154l.729 1.713.204.454.367.683 1.612 2.988 4.071 7.204 4.296 7.433 8.733 15.096 17.942 30.208c1.479 2.463 3.025 5.221 4.546 7.913l4.55 8.116c2.954 5.45 5.8 10.946 8.687 16.438a530.03 530.03 0 0 1 29.15 68.971 434.958 434.958 0 0 1 17.829 73.716 383.886 383.886 0 0 1 3.704 76.288l-.5 9.554-.929 9.667-.479 4.812-.658 4.809c-.454 3.195-.888 6.408-1.388 9.6a354.627 354.627 0 0 1-8.3 37.733 327.614 327.614 0 0 1-12.712 36.483c-2.275 5.971-5.138 11.763-7.8 17.6l-4.296 8.596-2.275 4.288-2.275 4.195a338.078 338.078 0 0 1-20.283 32.58 364.005 364.005 0 0 1-23.855 29.983 319.915 319.915 0 0 1-124.337 86.458 298.314 298.314 0 0 1-73.721 17.579 285.49 285.49 0 0 1-37.704 1.509 270.023 270.023 0 0 1-37.408-3.354 296.665 296.665 0 0 1-134.163-58.142 303.337 303.337 0 0 1-27.492-23.621 310.964 310.964 0 0 1-24.558-26.333 329.362 329.362 0 0 1-39.204-59.279z" fill="#11204d" fill-rule="nonzero"/></svg>