<svg clip-rule="evenodd" fill-rule="evenodd" stroke-linejoin="round" stroke-miterlimit="2" viewBox="0 0 512 512" xmlns="http://www.w3.org/2000/svg"><path d="m21.072 37.925c1.435-2.87 3.145-7.756.756-9.864-2.202.331-3.983.333-5.431.008-3.648-.82-4.803-3.71-3.799-7.411-4.908 4.485-5.115 11.099-3.296 17.468.296 1.034-.862 1.882-1.759 1.284-.305-.204-7.478-5.072-7.478-12.568 0-12.281 13.923-12.809 13.923-25.68 0-.983 1.152-1.522 1.906-.889 5.563 4.667 15.687 15.886 15.119 26.204-.281 5.115-3.061 9.467-8.26 12.933-.983.655-2.211-.424-1.681-1.485z" fill="#181e49" fill-rule="nonzero" transform="matrix(12.8 0 0 12.8 56.954 2.49899)"/></svg>