<svg clip-rule="evenodd" fill-rule="evenodd" stroke-linejoin="round" stroke-miterlimit="2" viewBox="0 0 512 512" xmlns="http://www.w3.org/2000/svg"><path d="m34.322 34.824c-3.932-7.865-10.601-21.202-11.615-23.231v-9.109h.088c.686 0 1.242-.556 1.242-1.242s-.556-1.242-1.242-1.242h-10.644c-.686 0-1.242.556-1.242 1.242s.556 1.242 1.242 1.242h.088v9.109c-1.015 2.029-7.683 15.366-11.615 23.231-.818 1.634-.732 3.538.228 5.093.962 1.554 2.626 2.482 4.452 2.482h24.338c1.826 0 3.49-.928 4.452-2.483.96-1.554 1.045-3.458.228-5.092zm-14.365 1.011c0 .686-.556 1.242-1.242 1.242h-2.661c-.686 0-1.242-.556-1.242-1.242s.556-1.243 1.242-1.243h1.419v-2.837h-1.419c-.686 0-1.242-.556-1.242-1.242s.556-1.242 1.242-1.242h1.419v-2.838h-1.419c-.686 0-1.242-.556-1.242-1.242s.556-1.242 1.242-1.242h1.419v-2.838h-1.419c-.686 0-1.242-.556-1.242-1.242s.556-1.242 1.242-1.242h2.661c.686 0 1.242.556 1.242 1.242z" fill="#181e49" fill-rule="nonzero" transform="matrix(11.907 0 0 11.907 47.9508 3.5797)"/></svg>