<svg enable-background="new 0 0 342 342" fill="#fff" viewBox="0 0 342 342" xmlns="http://www.w3.org/2000/svg"><path d="m171 0c-94.3 0-171 76.7-171 171s76.7 171 171 171 171-76.7 171-171-76.7-171-171-171zm0 327.8c-71.6 0-132.1-48.3-150.8-114h101.4c11.9 17.9 30.1 28.5 49.4 28.5s37.5-10.6 49.4-28.5h101.4c-18.7 65.7-79.2 114-150.8 114zm45.4-128.3c-2.5 0-4.9 1.3-6.1 3.5-9.2 15.6-23.8 25-39.3 25s-30.1-9.3-39.3-25c-1.3-2.2-3.6-3.5-6.1-3.5h-108.7c-1.8-9.4-2.6-18.9-2.6-28.5-.1-86.4 70.3-156.8 156.7-156.8s156.8 70.4 156.8 156.8c0 9.6-.9 19.1-2.6 28.5zm0 0"/><path d="m223 101.8-42.4 42.4c-3.1-1.1-6.3-1.7-9.5-1.8-15.7 0-28.5 12.8-28.5 28.5s12.8 28.5 28.5 28.5c15.7.1 28.4-12.5 28.5-28.2 0-6.9-2.5-13.6-7-18.8l40.6-40.6c2.7-2.8 2.7-7.3-.2-10.1-2.9-2.5-7.3-2.5-10 .1zm-52 83.4c-7.9 0-14.3-6.4-14.3-14.2 0-7.9 6.4-14.3 14.3-14.3s14.2 6.4 14.2 14.3-6.3 14.2-14.2 14.2zm0 0"/><path d="m171 64.1c3.9 0 7.1-3.2 7.1-7.1v-28.5c0-3.9-3.2-7.1-7.1-7.1s-7.1 3.2-7.1 7.1v28.5c0 3.9 3.2 7.1 7.1 7.1zm0 0"/><path d="m313.5 163.9h-28.5c-3.9 0-7.1 3.2-7.1 7.1s3.2 7.1 7.1 7.1h28.5c3.9 0 7.1-3.2 7.1-7.1s-3.2-7.1-7.1-7.1zm0 0"/><path d="m57 163.9h-28.5c-3.9 0-7.1 3.2-7.1 7.1s3.2 7.1 7.1 7.1h28.5c3.9 0 7.1-3.2 7.1-7.1s-3.2-7.1-7.1-7.1zm0 0"/><path d="m119.5 67.6-12.1-21c-2-3.4-6.4-4.5-9.8-2.5s-4.5 6.3-2.6 9.7l12.1 21c1.9 3.4 6.3 4.6 9.7 2.7 3.5-2.1 4.7-6.4 2.7-9.9zm0 0"/><path d="m298.1 97.7c-1.9-3.4-6.3-4.6-9.7-2.7h-.1l-21 12.1c-3.4 2-4.6 6.3-2.6 9.7 1.3 2.2 3.6 3.6 6.2 3.6 1.2 0 2.5-.3 3.6-1l21-12.1c3.4-1.9 4.6-6.2 2.6-9.6zm0 0"/><path d="m74.8 107.2c-.1 0-.1 0 0 0l-21.1-12.2c-3.4-2-7.8-.8-9.7 2.5-2 3.4-.9 7.8 2.5 9.7h.1l21 12.1c3.4 2 7.8.9 9.8-2.5 1.9-3.3.8-7.6-2.6-9.6zm0 0"/><path d="m244.3 44c-3.4-1.9-7.7-.8-9.7 2.6l-12.1 21c-2 3.4-.8 7.8 2.6 9.7 3.4 2 7.8.8 9.7-2.6l12.1-21c2-3.4.8-7.8-2.6-9.7zm0 0"/></svg>