<svg clip-rule="evenodd" fill-rule="evenodd" stroke-linejoin="round" stroke-miterlimit="2" viewBox="0 0 512 512" xmlns="http://www.w3.org/2000/svg"><g fill="#181e49"><g fill-rule="nonzero" transform="matrix(11.6364 0 0 11.6364 9.4205939848 9.4204338024)"><path d="m3.21 11.325c.335.2.769.09.969-.246.239-.402.494-.799.76-1.179.145-.207.168-.476.061-.705s-.328-.383-.58-.405c-.252-.021-.496.094-.64.301-.285.409-.559.835-.816 1.265-.2.336-.09.769.246.969z"/><path d="m6.184 7.94c.196.001.383-.081.517-.225.315-.338.649-.673.994-.994.283-.267.298-.714.031-.998-.266-.285-.712-.3-.998-.034-.367.344-.724.701-1.061 1.063-.192.206-.243.506-.131.764.112.257.367.424.648.424z"/><path d="m.874 23.988c.389-.039.672-.386.632-.774-.047-.47-.078-.941-.091-1.401-.012-.382-.324-.685-.706-.686h-.022c-.39.012-.697.337-.686.727.016.494.049.999.099 1.502.036.361.34.635.703.636.023 0 .047-.002.071-.004z"/><path d="m9.471 5.083c.144 0 .285-.044.403-.127.383-.267.78-.523 1.179-.762.332-.202.44-.634.24-.967-.2-.334-.631-.444-.966-.246-.426.256-.851.53-1.261.816-.254.177-.363.497-.27.792.093.294.366.495.675.494z"/><path d="m.744 19.633c.026.003.052.004.078.004.36 0 .662-.271.702-.629.05-.457.118-.925.202-1.39.045-.249-.046-.502-.239-.665s-.458-.211-.696-.126c-.237.086-.411.291-.456.54-.09.497-.162.997-.216 1.486-.021.187.034.373.151.52.117.146.288.24.474.26z"/><path d="m1.529 15.348c.178.06.372.046.54-.037.167-.084.295-.231.355-.409.149-.445.315-.888.493-1.315.097-.233.063-.5-.091-.701-.153-.2-.401-.304-.652-.271-.25.032-.464.195-.561.428-.191.459-.369.933-.53 1.411-.123.37.076.77.446.894z"/><path d="m1.704 28.252c.074 0 .149-.012.219-.035.178-.058.326-.185.411-.352s.1-.361.041-.539c-.143-.441-.274-.895-.387-1.349-.06-.246-.248-.44-.491-.51s-.505-.005-.687.171-.256.436-.194.681c.122.487.262.973.416 1.446.095.29.366.487.672.487z"/><path d="m21.774 1.413c.467.013.938.043 1.402.089.023.002.047.004.07.004.377 0 .687-.296.705-.672.019-.376-.261-.701-.636-.738-.496-.05-1.001-.081-1.501-.096-.389-.007-.712.298-.726.687-.011.39.296.715.686.726z"/><path d="m13.282 2.985c.094.001.186-.018.273-.054.431-.181.873-.347 1.312-.496.239-.08.417-.282.466-.53.05-.247-.036-.502-.225-.669-.19-.167-.454-.22-.693-.139-.47.158-.944.336-1.405.53-.311.129-.487.461-.421.791s.356.567.693.567z"/><path d="m25.942 1.979c.455.113.909.243 1.347.385.071.024.145.036.22.036.347 0 .643-.253.697-.596.055-.343-.148-.675-.478-.782-.472-.155-.959-.294-1.448-.415-.379-.092-.76.14-.853.518-.094.378.137.76.515.854z"/><path d="m17.452 1.744c.043 0 .086-.004.129-.012.461-.084.929-.153 1.388-.204.388-.044.666-.393.623-.78-.043-.388-.391-.667-.779-.625-.493.055-.994.128-1.488.219-.359.066-.609.395-.576.759s.338.643.703.643z"/><path d="m29.923 3.435c.185.091.368.186.55.283-1.356 2.35-.965 5.318.953 7.236 1.919 1.919 4.887 2.31 7.237.954.097.182.192.365.283.55.173.35.597.493.947.32s.493-.596.32-.946c-.097-.197-.197-.392-.3-.584-.028-.068-.067-.13-.115-.185 1.591-1.499 2.24-3.745 1.695-5.862s-2.199-3.77-4.316-4.314-4.363.107-5.861 1.699c-.045-.039-.095-.073-.148-.099-.205-.11-.411-.216-.619-.319-.35-.173-.773-.03-.946.32s-.03.774.32.947z"/><path d="m40.997 14.204c-.167-.084-.361-.099-.539-.04-.179.058-.326.185-.411.352s-.1.361-.041.539c.143.441.274.895.387 1.349.079.314.361.535.685.536.058 0 .116-.007.172-.021.379-.095.609-.478.515-.857-.122-.487-.262-.973-.416-1.446-.058-.178-.185-.327-.352-.412z"/><path d="m41.164 18.521c-.206.148-.316.395-.29.646.048.47.079.941.092 1.401.012.382.324.685.706.686h.021c.391-.012.698-.337.686-.727-.015-.494-.048-.999-.098-1.502-.025-.252-.182-.471-.413-.575s-.499-.077-.704.071z"/><path d="m29.527 39.54c-.2-.153-.468-.187-.701-.09-.431.181-.873.347-1.312.496-.239.08-.417.282-.467.53-.049.247.037.502.226.669.19.167.454.22.693.139.47-.158.944-.336 1.405-.53.233-.097.397-.311.429-.562.032-.25-.072-.499-.273-.652z"/><path d="m32.506 37.425c-.383.267-.779.524-1.178.762-.334.201-.442.634-.242.969.2.334.633.444.968.244.426-.256.851-.53 1.261-.816.32-.223.399-.664.175-.984-.223-.32-.663-.399-.984-.175z"/><path d="m36.356 34.459c-.246-.057-.504.022-.676.207-.315.338-.649.673-.994.994-.184.173-.262.431-.205.677s.241.442.483.516c.242.073.504.012.689-.16.367-.345.724-.702 1.061-1.064.172-.185.233-.447.159-.688-.074-.242-.271-.425-.517-.482z"/><path d="m39.171 31.056c-.161-.096-.353-.124-.535-.078s-.338.162-.434.324c-.239.402-.494.799-.76 1.179-.222.32-.144.76.176.983s.76.145.983-.174c.285-.409.559-.835.816-1.265.2-.336.09-.769-.246-.969z"/><path d="m40.852 27.033c-.37-.123-.77.076-.895.446-.149.445-.315.888-.493 1.315-.098.233-.064.5.09.701.153.201.402.305.652.273.251-.033.465-.197.562-.43.191-.459.369-.933.529-1.411.124-.37-.075-.77-.445-.894z"/><path d="m41.637 22.748c-.187-.022-.374.032-.521.15-.146.117-.239.289-.259.475-.05.457-.118.925-.202 1.39-.069.384.186.752.57.821.042.008.084.011.126.011.342 0 .634-.245.695-.581.09-.497.162-.997.216-1.486.021-.187-.034-.373-.151-.52-.117-.146-.288-.24-.474-.26z"/><path d="m24.8 40.649c-.461.084-.929.153-1.388.204-.373.041-.648.367-.628.741.021.375.33.668.705.668.026 0 .053-.001.079-.004.493-.055.994-.128 1.488-.219.383-.072.636-.439.565-.823-.07-.383-.437-.637-.821-.567z"/><path d="m16.439 40.402c-.455-.113-.909-.242-1.348-.385-.37-.122-.769.081-.89.452-.122.37.081.769.452.891.472.154.959.293 1.448.414.056.014.113.021.17.02.357 0 .658-.267.7-.621.043-.355-.185-.686-.532-.771z"/><path d="m20.607 40.968c-.467-.013-.938-.043-1.402-.089-.252-.026-.498.084-.646.29-.148.205-.175.474-.07.705.105.23.325.387.577.411.496.05 1.001.081 1.501.096h.02c.387 0 .701-.311.706-.697.006-.386-.3-.705-.686-.716z"/><path d="m12.458 38.946c-.185-.091-.368-.186-.55-.283 1.356-2.35.965-5.318-.954-7.236-1.918-1.919-4.886-2.31-7.236-.954-.097-.182-.192-.365-.283-.55-.173-.35-.597-.493-.947-.32s-.493.596-.32.946c.097.197.197.392.3.584.028.068.067.13.115.185-1.591 1.499-2.241 3.745-1.695 5.862.545 2.117 2.198 3.77 4.316 4.314 2.117.544 4.363-.107 5.861-1.699.045.039.095.073.148.099.205.109.411.216.619.319.349.173.773.03.946-.32s.03-.774-.32-.947z"/><path d="m31.79 21.191c0-5.855-4.746-10.6-10.6-10.6s-10.599 4.745-10.599 10.6c0 5.854 4.745 10.599 10.599 10.599 5.852-.007 10.593-4.748 10.6-10.599zm-17.666 0c0-3.903 3.164-7.067 7.066-7.067 3.903 0 7.067 3.164 7.067 7.067 0 3.902-3.164 7.066-7.067 7.066-3.9-.006-7.06-3.166-7.066-7.066z"/></g><circle cx="255.9959099848" cy="256.0073862024" r="65.7805692" stroke-width="11.6364"/></g></svg>