<svg width="350" height="110" xmlns="http://www.w3.org/2000/svg"><g fill="none"><path d="M153 83.508a66.92 66.92 0 0 1-9.595 2.29A67.689 67.689 0 0 1 131.3 87c-11.612 0-20.398-2.779-26.358-8.337C98.98 73.105 96 65.692 96 56.423c.061-10.378 3.663-18.469 10.805-24.271C113.45 26.718 122.079 24 132.692 24c3.716-.02 7.426.285 11.086.914a29.55 29.55 0 0 1 7.077 2.11L147.5 40.301a28.828 28.828 0 0 0-6.142-1.971 46.966 46.966 0 0 0-8.757-.734c-5.525 0-9.964 1.403-13.317 4.208-3.728 3.114-5.59 7.664-5.586 13.65 0 5.61 1.677 10.099 5.03 13.465 3.288 3.173 7.54 4.762 12.754 4.766 2.73 0 4.5-.184 5.31-.553V62.53h-8.384V49.71H153v33.798z" fill="#1A1A1A"/><path fill="#1A1A1A" d="M196.304878 60.9790673L173.817073 60.9790673 173.817073 72.3878882 199 72.3878882 199 86 157 86 157 24 197.72561 24 197.72561 37.6181482 173.817073 37.6181482 173.817073 47.5540843 196.304878 47.5540843z"/><path fill="#1A1A1A" d="M216.961844 37.9863694L201 37.9863694 201 24 250 24 250 37.9863694 233.758016 37.9863694 233.758016 86 216.961844 86z"/><path fill="#1A1A1A" d="M247 50.3050419L247.179874 50.3050419 250.651434 44.3247031 262.984767 24 283.280506 24 263.716253 50.3955616 284 86 264.903419 86z"/><path d="M327.277 24c.182 0 .77 1.769 1.752 5.32L346 85.88l-.09.09h-17.9c-.121 0-12.377-49.942-12.377-49.942h-.09L304.364 85.91l-.09.09h-17.087l-.188-.18L305.105 24h22.172zm21.395 7.727a4.406 4.406 0 0 1-3.16 1.273 4.459 4.459 0 0 1-3.206-1.301c-.85-.847-1.32-2-1.304-3.199a4.292 4.292 0 0 1 1.385-3.28A4.412 4.412 0 0 1 345.49 24a4.522 4.522 0 0 1 4.176 2.808 4.503 4.503 0 0 1-1.016 4.92h.023zm-5.798-5.835a3.73 3.73 0 0 0 2.63 6.36c.988 0 1.935-.396 2.63-1.097a3.724 3.724 0 0 0 0-5.258 3.669 3.669 0 0 0-5.283 0l.023-.005zm.673 5.112v-4.991h2.424c.343.015.68.104.985.26.436.238.69.71.65 1.203.036.344-.093.686-.348.92-.25.192-.55.306-.864.33.254.042.496.141.707.289.315.284.478.7.44 1.122v.445a1.32 1.32 0 0 0 0 .145c.007.049.019.097.036.144l.046.145h-1.235a3.554 3.554 0 0 1-.081-.694 2.343 2.343 0 0 0-.087-.607.608.608 0 0 0-.365-.37 1.459 1.459 0 0 0-.447-.076h-.562v1.735h-1.299zm2.389-4.008a2.197 2.197 0 0 0-.76-.104h-.319v1.446h.51c.251.015.5-.047.714-.18a.67.67 0 0 0 .255-.578.578.578 0 0 0-.412-.584h.012z" fill="#1A1A1A"/><path d="M45.643 105.553l6.853-7.211 1.447-2.157.459-.283-.495.156-4.404-1.94 1.515-1.148-.718-.505 2.238-2.656-.652-.36 4.332-5.253-.797-.499 2.926-5.198a32.06 32.06 0 0 1-6.672 4.465l-.072-.198a42.943 42.943 0 0 1-1.207 2.656 29.234 29.234 0 0 1-3.788 6.754 60.335 60.335 0 0 1-.809-8.413c-1.116 5.83-3.529 11.256-8.355 13.822 0 0-2.558-4.423-1.037-13.16l-.03.06c-2.468 4.759-4.555 6.976-4.555 6.976a77.786 77.786 0 0 1 .603-11.604c-2.775 4.76-6.437 8.726-11.136 9.663 0 0-1.207-7.607 7.42-18.845a57.427 57.427 0 0 1-4.79 2.35c-4.826 2.404-7.842 2.92-7.842 2.92a78.018 78.018 0 0 1 8.102-9.657c-5.273 1.984-10.75 2.783-15.04.475 0 0 2.812-4.723 12.023-8.112a60.79 60.79 0 0 1-2.57-.253c-5.363-.42-8.222-1.478-8.222-1.478a76.996 76.996 0 0 1 8.126-3.017c-3.716-.655-7.034-2.073-9.2-4.687 0 0 3.734-2.848 12.065-3.07l-.277-.103c-5.074-1.767-7.571-3.51-7.571-3.51a78.72 78.72 0 0 1 11.04-1.009c-4.645-1.057-8.868-3.004-10.925-6.472 0 0 3.432-1.67 10.177-.931a30.331 30.331 0 0 1-5.128-4.207 77.96 77.96 0 0 1 10.55 1.454c-3.408-2.662-6.032-5.847-6.502-9.5 0 0 4.446-.217 11.16 4.002a6.141 6.141 0 0 1-1.424-3.383c-.313-3.834-1.719-4.387-1.942-4.447h-.03s12.62.895 23.527 12.83c0 0 6.49 6.514 1.659 14.566-3.125 5.21-2.486 11.003.253 11.7 3.18.812 5.025 0 6.437-1.063.054-.289.09-.445.09-.445a13.82 13.82 0 0 1-3.016-1.977s2.6.36 4.042-3.161c0 0-2.528-1.154-2.811-2.157 0 0 5.773-.217 7.65-4.676 0 0-1.594.289-2.167-.504 0 0 3.843-2.873 3.427-9.898-1.243.373-3.016.487-5.496.145l-1.514-.788 3.384-2.283a2.305 2.305 0 0 0-1.532.354c-3.897 2.584-5.7-1.508-5.7-1.508s2.231 2.013 4.542 0a5.586 5.586 0 0 1 2.491-1.37c-1.255-.367-3.221-.349-6.207.985 0 0-.392-4.164 3.752-5.534.184-.049.372-.085.561-.108a10.238 10.238 0 0 0-1.02-.343l2.914-.865s-.549-1.659 1.75-2.115a5.038 5.038 0 0 1 2.22.084c2.364.61 4.797.917 7.239.913v-.931a15.666 15.666 0 0 1-4.313-.265c-2.57-.565-4.47-1.117-6.757-.288l-3.022-9.122 6.545 2.109 4.223-4.603L77 12.217V7.674L38.506 0 0 7.674v56.054C0 84.911 32.292 110 38.506 110a7.48 7.48 0 0 0 2.455-.54h.06c.29-.17 4.622-3.907 4.622-3.907z" fill="#ED1C24"/></g></svg>