<?xml version="1.0" encoding="UTF-8" standalone="no"?>
<!DOCTYPE svg PUBLIC "-//W3C//DTD SVG 1.1//EN" "http://www.w3.org/Graphics/SVG/1.1/DTD/svg11.dtd">
<svg width="100%" height="100%" viewBox="0 0 552 552" version="1.1" xmlns="http://www.w3.org/2000/svg" xmlns:xlink="http://www.w3.org/1999/xlink" xml:space="preserve" xmlns:serif="http://www.serif.com/" style="fill-rule:evenodd;clip-rule:evenodd;stroke-linejoin:round;stroke-miterlimit:2;">
    <g>
        <path d="M386.878,0L164.156,0C73.64,0 0,73.64 0,164.156L0,386.878C0,477.394 73.64,551.034 164.156,551.034L386.878,551.034C477.394,551.034 551.034,477.394 551.034,386.878L551.034,164.156C551.033,73.64 477.393,0 386.878,0ZM495.6,386.878C495.6,446.923 446.923,495.6 386.878,495.6L164.156,495.6C104.111,495.6 55.434,446.923 55.434,386.878L55.434,164.156C55.434,104.11 104.111,55.434 164.156,55.434L386.878,55.434C446.923,55.434 495.6,104.11 495.6,164.156L495.6,386.878Z" style="fill:url(#_Linear1);fill-rule:nonzero;"/>
        <path d="M275.517,133C196.933,133 133,196.933 133,275.516C133,354.099 196.933,418.033 275.517,418.033C354.101,418.033 418.034,354.1 418.034,275.516C418.034,196.932 354.101,133 275.517,133ZM275.517,362.6C227.422,362.6 188.434,323.612 188.434,275.517C188.434,227.422 227.423,188.434 275.517,188.434C323.612,188.434 362.6,227.422 362.6,275.517C362.6,323.611 323.611,362.6 275.517,362.6Z" style="fill:url(#_Linear2);fill-rule:nonzero;"/>
        <circle cx="418.31" cy="134.07" r="34.15" style="fill:url(#_Linear3);"/>
    </g>
    <defs>
        <linearGradient id="_Linear1" x1="0" y1="0" x2="1" y2="0" gradientUnits="userSpaceOnUse" gradientTransform="matrix(3.33808e-14,-545.15,545.15,3.33808e-14,275.517,549.43)"><stop offset="0" style="stop-color:rgb(224,155,61);stop-opacity:1"/><stop offset="0.3" style="stop-color:rgb(199,76,77);stop-opacity:1"/><stop offset="0.6" style="stop-color:rgb(194,25,117);stop-opacity:1"/><stop offset="1" style="stop-color:rgb(112,36,196);stop-opacity:1"/></linearGradient>
        <linearGradient id="_Linear2" x1="0" y1="0" x2="1" y2="0" gradientUnits="userSpaceOnUse" gradientTransform="matrix(3.33808e-14,-545.15,545.15,3.33808e-14,275.517,549.43)"><stop offset="0" style="stop-color:rgb(224,155,61);stop-opacity:1"/><stop offset="0.3" style="stop-color:rgb(199,76,77);stop-opacity:1"/><stop offset="0.6" style="stop-color:rgb(194,25,117);stop-opacity:1"/><stop offset="1" style="stop-color:rgb(112,36,196);stop-opacity:1"/></linearGradient>
        <linearGradient id="_Linear3" x1="0" y1="0" x2="1" y2="0" gradientUnits="userSpaceOnUse" gradientTransform="matrix(3.33808e-14,-545.15,545.15,3.33808e-14,418.31,549.43)"><stop offset="0" style="stop-color:rgb(224,155,61);stop-opacity:1"/><stop offset="0.3" style="stop-color:rgb(199,76,77);stop-opacity:1"/><stop offset="0.6" style="stop-color:rgb(194,25,117);stop-opacity:1"/><stop offset="1" style="stop-color:rgb(112,36,196);stop-opacity:1"/></linearGradient>
    </defs>
</svg>
