<?xml version="1.0" encoding="UTF-8"?> <!-- Generator: Adobe Illustrator 23.0.2, SVG Export Plug-In . SVG Version: 6.00 Build 0) --> <svg xmlns="http://www.w3.org/2000/svg" xmlns:xlink="http://www.w3.org/1999/xlink" id="Layer_1" x="0px" y="0px" viewBox="0 0 270 270" style="enable-background:new 0 0 270 270;" xml:space="preserve"> <metadata><?xpacket begin="﻿" id="W5M0MpCehiHzreSzNTczkc9d"?> <?xpacket end="w"?></metadata> <g> <g> <path d="M253.7,16.3c-21.8-21.8-57.2-21.8-78.9,0l-48.8,49c-3.3,3.3-3.3,8.7,0,12.1c3.3,3.3,8.7,3.3,12,0l48.8-49 c15.1-15.1,39.7-15.1,54.8,0c15.1,15.2,15.1,39.8,0,55l-64.5,64.7c-7.3,7.3-17,11.4-27.4,11.4c-10.3,0-20.1-4-27.4-11.4 c-3.3-3.3-8.7-3.3-12.1,0c-3.3,3.3-3.3,8.7,0,12.1c10.5,10.6,24.5,16.4,39.4,16.4c14.9,0,28.9-5.8,39.4-16.4l64.5-64.7 C275.4,73.7,275.4,38.2,253.7,16.3L253.7,16.3z M253.7,16.3"></path> <path d="M130.8,193.7l-47.7,47.9c-7.3,7.3-17,11.4-27.4,11.4c-10.3,0-20.1-4-27.4-11.4c-15.1-15.1-15.1-39.8,0-54.9l64.5-64.7 c15.1-15.1,39.7-15.1,54.8,0c3.3,3.3,8.7,3.3,12,0c3.3-3.3,3.3-8.7,0-12.1c-21.7-21.8-57.1-21.8-78.9,0l-64.5,64.7 c-21.7,21.8-21.7,57.3,0,79.1C26.8,264.2,40.8,270,55.7,270c14.9,0,28.9-5.8,39.4-16.4l47.7-47.9c3.3-3.3,3.3-8.7,0-12.1 C139.6,190.3,134.2,190.3,130.8,193.7L130.8,193.7z M130.8,193.7"></path> </g> </g> </svg> 