<svg clip-rule="evenodd" fill-rule="evenodd" stroke-linejoin="round" stroke-miterlimit="2" viewBox="0 0 512 512" xmlns="http://www.w3.org/2000/svg"><g fill="#0077b5" fill-rule="nonzero"><path d="m511.872 512v-.021h.128v-187.776c0-91.862-19.776-162.624-127.168-162.624-51.627 0-86.272 28.33-100.416 55.189h-1.493v-46.613h-101.824v341.824h106.026v-169.259c0-44.565 8.448-87.659 63.638-87.659 54.378 0 55.189 50.859 55.189 90.518v166.421z" transform="matrix(.6875 0 0 .6875 80 80)"/><path d="m85.808 196.996h72.9815625v235.004h-72.9815625z" stroke-width=".6875"/><path d="m61.483 0c-33.942 0-61.483 27.541-61.483 61.483 0 33.941 27.541 62.058 61.483 62.058 33.941 0 61.482-28.117 61.482-62.058-.021-33.942-27.562-61.483-61.482-61.483z" transform="matrix(.6875 0 0 .6875 80 80)"/></g></svg>