<svg enable-background="new 0 0 270 270" fill="#fff" viewBox="0 0 270 270" xmlns="http://www.w3.org/2000/svg"><path d="m253.7 16.3c-21.8-21.8-57.2-21.8-78.9 0l-48.8 49c-3.3 3.3-3.3 8.7 0 12.1 3.3 3.3 8.7 3.3 12 0l48.8-49c15.1-15.1 39.7-15.1 54.8 0 15.1 15.2 15.1 39.8 0 55l-64.5 64.7c-7.3 7.3-17 11.4-27.4 11.4-10.3 0-20.1-4-27.4-11.4-3.3-3.3-8.7-3.3-12.1 0-3.3 3.3-3.3 8.7 0 12.1 10.5 10.6 24.5 16.4 39.4 16.4s28.9-5.8 39.4-16.4l64.5-64.7c21.9-21.8 21.9-57.3.2-79.2zm0 0"/><path d="m130.8 193.7-47.7 47.9c-7.3 7.3-17 11.4-27.4 11.4-10.3 0-20.1-4-27.4-11.4-15.1-15.1-15.1-39.8 0-54.9l64.5-64.7c15.1-15.1 39.7-15.1 54.8 0 3.3 3.3 8.7 3.3 12 0s3.3-8.7 0-12.1c-21.7-21.8-57.1-21.8-78.9 0l-64.5 64.7c-21.7 21.8-21.7 57.3 0 79.1 10.6 10.5 24.6 16.3 39.5 16.3s28.9-5.8 39.4-16.4l47.7-47.9c3.3-3.3 3.3-8.7 0-12.1-3.2-3.3-8.6-3.3-12 .1zm0 0"/></svg>