<svg clip-rule="evenodd" fill-rule="evenodd" stroke-linejoin="round" stroke-miterlimit="2" viewBox="0 0 3125 1087" xmlns="http://www.w3.org/2000/svg" xmlns:xlink="http://www.w3.org/1999/xlink"><linearGradient id="a" gradientTransform="matrix(823.442 218.397 -218.397 823.442 -15.5321 421.678)" gradientUnits="userSpaceOnUse" x1="0" x2="1" y1="0" y2="0"><stop offset="0" stop-color="#0f1d4a"/><stop offset=".12" stop-color="#11204d"/><stop offset=".23" stop-color="#172958"/><stop offset=".33" stop-color="#203969"/><stop offset=".42" stop-color="#2e4f82"/><stop offset=".51" stop-color="#3f6ca2"/><stop offset=".6" stop-color="#548fc8"/><stop offset=".6" stop-color="#5692cc"/><stop offset="1" stop-color="#fff"/></linearGradient><linearGradient id="b"><stop offset="0" stop-color="#0f1d4a"/><stop offset=".16" stop-color="#11204d"/><stop offset=".3" stop-color="#172958"/><stop offset=".43" stop-color="#203969"/><stop offset=".55" stop-color="#2e4f82"/><stop offset=".67" stop-color="#3f6ca2"/><stop offset=".79" stop-color="#548fc8"/><stop offset=".8" stop-color="#5692cc"/><stop offset="1" stop-color="#fff"/></linearGradient><linearGradient id="c" gradientTransform="matrix(173.704 130.974 -130.974 173.704 459.34 193.622)" gradientUnits="userSpaceOnUse" x1="0" x2="1" xlink:href="#b" y1="0" y2="0"/><linearGradient id="d" gradientTransform="matrix(732.467 12.8703 -12.8703 732.467 52.4342 426.8)" gradientUnits="userSpaceOnUse" x1="0" x2="1" xlink:href="#b" y1="0" y2="0"/><linearGradient id="e" gradientUnits="userSpaceOnUse" x1="291.597" x2="908.688" xlink:href="#b" y1="333.855" y2="333.855"/><g fill-rule="nonzero"><path d="m471.11 4.226c-50.039 47.384-97.784 96.294-143.234 146.73-45.339 50.497-88.105 102.97-125.838 157.749-18.628 27.018-35.651 55.101-50.983 84.106-7.402 14.304-14.324 28.756-20.171 43.3-1.536 3.691-2.906 7.512-4.368 11.258l-4.348 11.591-2.258 5.888-2.036 5.684c-1.351 3.802-2.757 7.567-3.997 11.406-10.367 29.932-18.053 60.721-22.966 92.007-2.258 14.953-3.494 30.042-3.701 45.163-.265 14.225.857 28.442 3.35 42.45l.185 1.052.277 2.713c2.429 23.696 7.265 47.083 14.435 69.803.796 2.861 1.85 5.648 2.831 8.453l2.961 8.435 3.331 8.287c1.148 2.75 2.128 5.537 3.424 8.269 2.479 5.426 4.756 10.944 7.55 16.241l4.016 7.974 4.349 7.844c2.775 5.297 6.069 10.317 9.104 15.466 1.499 2.603 3.239 5.039 4.867 7.568 1.629 2.528 3.276 5.02 4.978 7.493 6.959 9.782 14.102 19.453 21.967 28.571 1.85 2.288 3.83 4.651 5.829 6.903l6.088 6.681 3.035 3.34 3.183 3.23 6.329 6.442c2.11 2.159 4.386 4.152 6.57 6.257 2.183 2.104 4.348 4.189 6.625 6.146l6.828 5.98 3.405 2.99 3.516 2.86 7.051 5.722c2.35 1.845 4.83 3.691 7.236 5.537 2.405 1.845 4.793 3.691 7.291 5.389l7.402 5.15c1.259.867 2.48 1.845 3.701 2.602l3.831 2.436 7.643 4.928c2.554 1.606 5.2 3.082 7.809 4.633 2.609 1.55 5.163 3.174 7.865 4.559 21.221 11.767 43.44 21.649 66.398 29.53 2.869.997 5.774 1.846 8.661 2.769 2.887.922 5.774 1.845 8.698 2.694l8.827 2.27 4.386 1.2 4.608 1.052c6.162 1.421 12.306 2.824 18.394 4.061l9.161 1.956 4.57.96 4.497.683c6.015.867 12.01 1.956 18.043 2.676l18.173 1.845c6.088.351 12.195.554 18.283.868 3.054.221 6.107.129 9.253.092h9.253c24.587-.5 49.08-3.181 73.19-8.01l9.086-1.956c3.035-.646 6.089-1.218 9.068-2.086 5.977-1.624 12.01-3.119 18.006-4.836l17.802-5.684c5.867-2.086 11.696-4.338 17.581-6.478 47.089-18.534 90.646-44.977 128.781-78.183 19.25-16.894 36.904-35.515 52.741-55.628 4.164-4.909 7.809-10.206 11.584-15.43 1.851-2.62 3.812-5.204 5.645-7.862l5.237-8.14 5.311-8.139c1.85-2.731 3.257-5.537 4.904-8.398 3.146-5.647 6.643-11.184 9.382-17.072l4.367-8.748c1.481-2.917 3.017-5.814 4.238-8.841 2.591-5.999 5.311-11.978 7.81-18.051 2.498-6.072 4.478-12.347 6.847-18.456 2.368-6.109 3.923-12.606 5.922-18.937.462-1.606 1.036-3.174 1.424-4.78l1.166-4.836 2.406-9.689c1.851-6.479 2.868-13.031 4.127-19.62l1.85-9.911c.519-3.285.981-6.7 1.481-10.04.962-6.7 1.943-13.381 2.498-20.155.981 6.718 1.629 13.529 2.128 20.302.222 3.415.481 6.755.666 10.188l.204 10.281c0 6.866.315 13.787-.185 20.653l-.518 10.335-.278 5.187c-.092 1.735-.37 3.433-.555 5.149-2.605 27.817-8.424 55.241-17.34 81.726-1.98 6.773-4.756 13.233-7.235 19.859-1.314 3.267-2.462 6.626-3.905 9.856l-4.349 9.671-4.423 9.672c-1.591 3.156-3.294 6.275-4.941 9.412-3.331 6.257-6.551 12.625-10.344 18.623-14.497 24.67-31.474 47.805-50.669 69.046-39.02 42.911-85.742 78.167-137.756 103.948-26.224 13.096-53.669 23.604-81.943 31.376-28.459 7.834-57.601 12.945-87.032 15.264l-11.104.72c-3.701.24-7.402.516-11.103.479-7.402 0-14.804.203-22.207.13l-22.336-1.052c-7.402-.554-14.805-1.495-22.207-2.252l-5.552-.609-5.403-.868-10.808-1.845c-3.59-.609-7.235-1.145-10.788-1.846l-10.66-2.012-5.329-1.015-5.441-1.255-10.918-2.547c-3.701-.83-7.217-1.846-10.826-2.879-3.609-1.034-7.217-1.938-10.789-3.045-28.59-8.736-56.292-20.137-82.739-34.053-26.439-13.982-51.475-30.459-74.762-49.205-23.397-18.736-44.892-39.717-64.178-62.642-9.734-11.406-18.635-23.514-27.277-35.806-2.11-3.1-4.127-6.275-6.2-9.413-2.072-3.137-4.164-6.238-6.051-9.505-3.831-6.46-7.791-12.919-11.252-19.564-29.169-53.122-46.466-111.91-50.705-172.329l.463 3.691c-2.843-19.786-3.724-39.804-2.628-59.762 1.035-19.07 3.429-38.042 7.162-56.773 7.394-36.033 18.277-71.266 32.495-105.203 1.666-4.208 3.479-8.36 5.293-12.513l2.739-6.294 2.757-5.943 5.552-12.015c1.85-4.097 3.701-8.176 5.792-12.292l6.311-12.366c2.165-4.061 4.422-8.029 6.643-12.052 2.221-4.024 4.553-7.918 6.884-11.831 2.332-3.913 4.627-7.844 7.088-11.628l7.402-11.424 7.569-11.074c2.498-3.692 5.145-7.383 7.735-11.074 2.591-3.692 5.145-7.383 7.865-10.834l7.976-10.668c2.702-3.525 5.552-6.977 8.235-10.465 5.422-7.032 11.104-13.75 16.803-20.561 22.929-26.854 46.746-52.638 71.858-76.908 12.448-12.231 25.149-24.166 38.103-35.806 12.954-11.554 26.019-23.071 39.38-34.163 6.644-5.537 13.435-10.982 20.153-16.482 6.717-5.5 13.509-10.834 20.356-16.113 13.706-10.569 27.592-20.899 41.656-30.988 28.221-20.081 57.053-39.147 86.847-56.57z" fill="url(#a)"/><path d="m706.801 566.291c-29.981-2.926-59.235-10.982-86.483-23.816-26.192-12.345-50.275-28.737-71.361-48.571-40.415-38.077-69.285-86.752-83.307-140.456l.738 1.845c-4.952-14.973-8.742-30.305-11.336-45.86-2.604-15.126-4.302-30.124-5.41-45.011-1.991-29.408-2.213-58.908-.665-88.343 1.404-29.165 4.173-58.071 8.05-86.701 3.878-28.63 8.844-57.186 15.14-85.152-1.532 28.685-1.68 57.352-.738 85.871.942 28.52 3.009 57.002 6.425 85.06 3.184 27.808 8.043 55.4 14.549 82.624 3.305 13.411 7.109 26.564 11.558 39.182 4.262 12.293 9.452 24.244 15.528 35.751l.739 1.844c17.378 38.671 45.317 71.662 80.611 95.187 16.513 10.912 34.654 19.137 53.747 24.369 18.03 4.883 36.77 6.612 55.39 5.11z" fill="url(#c)"/><path d="m908.601 625.31c-8.988 30.556-22.668 59.527-40.551 85.875-18.238 27.132-40.275 51.5-65.436 72.359-25.682 21.276-54.235 38.818-84.815 52.11l-11.731 4.734-5.837 2.422c-1.977.721-3.991 1.35-5.986 2.034l-11.99 4.013-6.041 1.997-6.115 1.646c-49.37 13.747-101.017 17.301-151.802 10.448-16.998-2.198-33.838-5.484-50.416-9.838l-6.244-1.664-6.189-1.85-6.208-1.849-6.151-2.034c-4.12-1.313-8.185-2.829-12.249-4.345-4.064-1.517-8.092-3.144-12.119-4.771-32.801-13.349-63.309-31.763-90.413-54.57-13.832-11.722-26.593-24.656-38.13-38.647-2.975-3.44-5.672-7.157-8.443-10.8l-1.995-2.662-1.848-2.626-7.389-10.541-3.51-5.399c-2.31-3.698-4.73-7.175-6.928-10.892-18.216-29.675-32.424-61.636-42.251-95.048l-1.847-6.305-1.589-6.361c-1.016-4.272-2.217-8.47-3.029-12.778l-2.605-12.945-2.051-12.944c-2.43-17.259-3.714-34.661-3.843-52.091.028-17.165 1.077-34.312 3.141-51.352 2.047-16.796 5.032-33.465 8.942-49.928 1.736-8.21 4.156-16.18 6.281-24.242l3.695-11.891 1.847-5.954 2.014-5.843c5.209-15.681 11.269-30.882 17.624-45.86s13.412-29.587 20.691-43.807 14.964-28.311 23.037-41.976c15.92-27.446 33.222-54.066 51.839-79.755 4.766-6.362 9.422-12.76 14.299-18.991 4.877-6.232 9.68-12.519 14.779-18.603 10.124-12.168 20.322-24.224 31.185-35.689 21.29-23.097 44.388-44.455 69.075-63.871-17.071 26.277-33.402 52.443-48.384 79.219-7.501 13.388-14.78 26.813-21.763 40.386s-13.763 27.164-20.229 40.904c-12.932 27.497-25.07 55.235-36.265 83.305-11.195 28.071-21.448 56.123-30.076 84.304-1.09 3.514-2.05 7.046-3.085 10.559-1.035 3.514-2.051 7.008-2.956 10.54l-2.808 10.522-2.512 10.559-1.257 5.27-1.108 5.27-2.217 10.522c-1.201 7.046-2.642 14.035-3.584 21.044-2.272 14.017-3.455 27.996-4.397 41.865l-.425 10.411c-.221 3.458 0 6.898-.111 10.355-.166 6.935.222 13.703.444 20.489.833 13.463 2.437 26.867 4.803 40.146 2.41 13.171 5.687 26.168 9.81 38.907 1.94 6.398 4.323 12.685 6.632 18.991l3.843 9.338c1.237 3.125 2.789 6.139 4.156 9.246 5.651 12.337 12.049 24.317 19.158 35.874 1.7 2.94 3.695 5.788 5.542 8.691l2.771 4.327 2.919 4.253 2.938 4.254 1.459 2.126 1.423 1.849c1.847 2.515 3.695 5.086 5.745 7.526 7.986 9.966 16.792 19.245 26.326 27.738 9.764 8.702 20.163 16.663 31.11 23.818 11.21 7.282 22.886 13.817 34.954 19.564 24.761 11.694 50.801 20.457 77.591 26.11 27.153 5.828 54.888 8.496 82.654 7.952 56.969-1.387 112.753-16.578 162.572-44.27 25.853-14.345 49.904-31.727 71.643-51.777 22.434-20.794 42.547-43.964 59.986-69.103z" fill="url(#d)"/><path d="m291.597 529.107c22.828 29.934 51.217 55.157 83.601 74.278 7.907 4.636 16.083 8.794 24.485 12.451 8.291 3.702 16.786 6.926 25.444 9.657 8.621 2.624 17.372 4.798 26.218 6.512 8.77 1.625 17.631 2.713 26.533 3.256 17.64 1.108 35.35-.004 52.714-3.312 8.607-1.624 17.109-3.762 25.462-6.401l6.2-2.072c2.085-.666 4.096-1.554 6.125-2.312 4.097-1.48 8.045-3.349 12.03-5.069 31.571-14.775 59.367-36.572 81.277-63.734 27.285-33.723 45.021-74.184 51.349-117.143l.775-6.383.387-3.182.24-3.2.48-6.383.221-6.53c.52-17.412-.524-34.836-3.118-52.06-2.792-17.338-7.026-34.412-12.658-51.042-5.659-16.892-12.503-33.361-20.48-49.285-2.067-3.977-4.096-7.992-6.218-11.951l-6.569-11.896-14.096-24.901-7.048-12.599-3.561-6.419-3.58-6.642-.978-1.85-.479-.962-.535-1.091c-.425-.851-.739-1.499-1.237-2.664l-.535-1.221-.129-.352c.166.333-.221-.481-.683-1.332-.461-.851-1.033-1.85-1.531-2.756l-6.845-12.155-89.284-158.362 127.532 128.207c16.311 16.409 32.585 32.986 48.471 50.08s31.366 34.706 46.127 52.892 29.042 37 42.216 56.722c13.185 19.626 25.265 39.978 36.182 60.958 21.789 41.63 39.018 85.503 51.386 130.852 3.026 11.304 5.849 22.626 8.247 34.04 1.2 5.699 2.381 11.397 3.377 17.15l1.568 8.566 1.347 8.639c.425 2.868.904 5.735 1.292 8.603l1.107 8.64c.369 2.867.756 5.79 1.052 8.584l1.107 8.528c.774 5.735 1.531 11.526 1.845 17.372.422 5.825.062 11.68-1.071 17.409.02-5.722-.655-11.425-2.011-16.983-1.254-5.55-2.896-11.008-4.594-16.521-1.697-5.513-3.376-11.1-4.889-16.65l-2.344-8.27c-.793-2.738-1.679-5.55-2.509-8.214l-2.38-8.177-2.676-8.14c-1.715-5.439-3.69-10.823-5.535-16.188-3.764-10.742-7.786-21.374-12.067-31.894-16.899-41.865-37.537-82.113-61.663-120.252l-4.52-7.085-4.65-7.012-4.631-6.993-4.779-6.882c-6.365-9.25-13.063-18.112-19.908-26.937-13.654-17.686-28.095-34.799-43.323-51.338s-30.844-32.807-46.847-48.803c-15.991-15.972-32.344-31.741-49.061-47.305l38.249-30.248c2.509 4.107 5.037 8.158 7.565 12.506.664 1.147 1.254 2.09 1.993 3.441.738 1.35 1.439 2.516 2.601 4.995l.591 1.387.166.37.295.555 1.31 2.424 3.303 5.846 3.487 6.031 7.085 12.247 14.558 24.513c1.199 1.998 2.454 4.237 3.69 6.42l3.69 6.586c2.399 4.421 4.705 8.88 7.048 13.338 9.195 18.07 17.1 36.772 23.654 55.964 6.554 19.475 11.394 39.489 14.466 59.811 3.058 20.482 4.065 41.219 3.007 61.902l-.406 7.751-.756 7.844-.388 3.904-.535 3.903c-.369 2.591-.719 5.199-1.125 7.789-1.688 10.321-3.936 20.543-6.735 30.618-2.854 10.062-6.298 19.946-10.314 29.6-1.845 4.847-4.17 9.546-6.328 14.283l-3.488 6.974-1.845 3.478-1.845 3.404c-4.982 9.118-10.477 17.944-16.458 26.437-6.021 8.444-12.482 16.565-19.355 24.328-27.553 31.135-62.15 55.192-100.89 70.153-19.255 7.279-39.355 12.072-59.817 14.263-10.16 1.081-20.379 1.489-30.592 1.221-10.168-.199-20.31-1.108-30.352-2.719-39.639-6.389-77.058-22.605-108.86-47.176-7.811-5.936-15.26-12.336-22.307-19.166-7.049-6.731-13.702-13.865-19.927-21.368-12.305-14.834-22.971-30.962-31.81-48.1z" fill="url(#e)"/><path d="m1156.96 350.537 15.806-97.875h74.801c24.736 0 37.091-9.537 37.062-28.61.23-5.243-1.141-10.431-3.93-14.876-2.809-3.875-6.582-6.949-10.945-8.917-4.989-2.301-10.335-3.73-15.806-4.226-6.165-.606-12.357-.902-18.552-.888-11.372.033-22.731.738-34.02 2.113-11.79 1.437-23.412 3.255-34.991 5.494-11.58 2.24-22.61 4.734-33.133 7.607-10.523 2.874-20.073 5.663-28.568 8.452l13.355-102.143c21.13-7.836 42.907-13.804 65.081-17.834 23.856-4.475 48.077-6.725 72.35-6.72 21.879-.211 43.708 2.143 65.039 7.016 17.844 4.003 34.832 11.159 50.163 21.13 13.47 8.772 24.632 20.658 32.54 34.653 7.975 14.949 11.95 31.705 11.537 48.642v7.903c.196 18.404-4.973 36.466-14.875 51.98-10.833 16.409-26.125 29.384-44.078 37.401 19.084 7.49 35.494 20.515 47.121 37.4 11.26 15.919 17.313 34.934 17.329 54.432v8.452c.116 16.408-3.195 32.659-9.723 47.712-6.798 15.19-17.251 28.46-30.427 38.626-15.808 11.845-33.762 20.513-52.868 25.526-25.166 6.756-51.158 9.928-77.21 9.424-11.791 0-24.426-.592-38.034-1.817-13.608-1.226-26.963-2.832-40.106-4.86-12.905-1.966-25.699-4.603-38.33-7.903-11.025-2.814-21.877-6.272-32.498-10.354l17.622-96.058c21.287 6.421 43.029 11.224 65.039 14.369 17.118 2.531 34.383 3.943 51.685 4.226 20.665 0 34.992-2.916 42.852-8.833 8.024-6.082 12.48-15.771 11.875-25.821 0-12.171-3.958-20.989-11.875-26.455-7.86-5.452-19.736-8.199-35.541-8.199z" fill="#181e49"/><path d="m1631.21 393.685c21.89 6.87 44.248 12.153 66.898 15.806 18.311 2.768 36.801 4.181 55.319 4.226 18.637 0 32.245-2.113 40.739-6.382 8.367-4.105 13.389-12.894 12.678-22.186.253-4.914-.69-9.815-2.747-14.284-1.644-3.257-4.16-5.993-7.268-7.903-3.324-1.923-6.912-3.346-10.65-4.226-4.226-1.014-8.452-1.902-12.678-2.747l-39.091-7.269c-16.792-2.914-33.076-8.237-48.346-15.805-13.729-6.838-26.249-15.874-37.063-26.751-10.415-10.636-18.592-23.253-24.046-37.105-5.783-14.925-8.652-30.82-8.452-46.825v-6.677c-.54-21.414 3.932-42.659 13.059-62.038 8.566-17.216 21.38-31.965 37.231-42.852 17.546-11.818 37.135-20.273 57.77-24.934 24.823-5.662 50.23-8.357 75.689-8.029 23.308-.015 46.581 1.807 69.603 5.451 21.865 3.394 43.349 8.899 64.151 16.439l-21.891 102.144c-19.099-5.72-38.61-9.959-58.361-12.678-15.92-2.266-31.971-3.48-48.051-3.634-19.862 0-33.949 2.014-42.26 6.043-8.191 3.742-13.23 12.142-12.678 21.13-.134 6.636 3.217 12.858 8.832 16.397 8.875 5.145 18.688 8.465 28.864 9.762l35.288 6.677c19.696 3.595 38.816 9.835 56.84 18.553 14.346 6.944 27.25 16.537 38.034 28.272 9.602 10.838 16.803 23.584 21.131 37.401 4.547 14.652 6.799 29.92 6.677 45.261v6.085c.587 21.964-3.745 43.782-12.678 63.856-8.413 17.7-21.306 32.895-37.401 44.077-18.14 12.233-38.474 20.844-59.883 25.357-26.154 5.76-52.882 8.51-79.661 8.198-24.07-.11-48.093-2.131-71.843-6.043-25.934-4.271-51.404-10.992-76.069-20.074z" fill="#181e49"/><path d="m2303.07 83.62-12.171 100.918h-164.182v60.179h158.731l-12.171 100.96h-146.56v70.111h176.353l-12.171 100.96h-299.12v-433.128z" fill="#181e49"/><path d="m2604 436.918h-113.681l-20.073 79.661h-134.346l136.163-432.959h154.039l140.474 432.917h-143.094zm-88.747-98.509h64.363l-31.611-127.669z" fill="#181e49"/><path d="m2809.51 393.685c21.89 6.87 44.248 12.153 66.898 15.806 18.311 2.768 36.801 4.181 55.319 4.226 18.651 0 32.231-2.127 40.739-6.382 8.368-4.105 13.389-12.894 12.679-22.186.231-4.912-.711-9.809-2.747-14.284-1.631-3.266-4.151-6.005-7.269-7.903-3.324-1.923-6.912-3.346-10.65-4.226-4.226-1.014-8.452-1.902-12.678-2.747l-38.922-7.269c-16.79-2.92-33.073-8.243-48.346-15.805-13.729-6.838-26.248-15.874-37.062-26.751-10.416-10.636-18.593-23.253-24.047-37.105-5.783-14.925-8.652-30.82-8.452-46.825v-6.677c-.606-21.397 3.794-42.641 12.848-62.038 8.531-17.201 21.3-31.948 37.104-42.852 17.536-11.81 37.109-20.264 57.728-24.934 24.893-5.672 50.371-8.368 75.9-8.029 23.308-.015 46.581 1.807 69.603 5.451 21.865 3.394 43.349 8.899 64.151 16.439l-21.89 102.144c-19.098-5.725-38.611-9.963-58.362-12.678-15.92-2.266-31.971-3.48-48.05-3.634-19.863 0-33.95 2.014-42.261 6.043-8.108 3.807-13.055 12.192-12.467 21.13-.133 6.636 3.218 12.858 8.833 16.397 8.874 5.145 18.688 8.465 28.864 9.762l35.287 6.677c19.696 3.595 38.816 9.835 56.84 18.553 14.346 6.944 27.251 16.537 38.035 28.272 9.601 10.838 16.802 23.584 21.13 37.401 4.547 14.652 6.8 29.92 6.677 45.261v6.085c.588 21.964-3.744 43.782-12.678 63.856-8.413 17.7-21.306 32.895-37.4 44.077-18.14 12.233-38.475 20.844-59.883 25.357-26.155 5.757-52.882 8.508-79.662 8.198-24.069-.11-48.092-2.131-71.842-6.043-25.933-4.276-51.403-10.997-76.069-20.074z" fill="#181e49"/><g fill="#e11f26"><path d="m1119.77 1019.94v-383.599h152.687v43.444h-101.678v121.457h85.577v42.894h-85.577v132.909h101.678v42.895z"/><path d="m1590.89 1019.94-87.902-256.479v256.479h-51.008v-383.599h55.234l87.902 255.718v-115.033l-.042-140.685h51.051v383.599z"/><path d="m1857.77 1019.94v-383.599h152.687v43.444h-101.678v121.457h85.577v42.894h-85.577v132.909h101.678v42.895z"/><path d="m2328.21 1020.11-52.318-162.788h-34.907v162.788h-51.009v-383.768h116.047c15.839.044 31.074 6.084 42.641 16.904 11.372 10.808 17.533 25.993 16.904 41.669v97.199c.587 15.842-5.553 31.194-16.904 42.261-5.825 4.805-12.447 8.553-19.566 11.072l-4.522 1.648 57.559 173.015zm-87.225-205.682h51.811c5.661.323 11.209-1.684 15.352-5.556 4.143-3.871 6.521-9.27 6.581-14.941v-94.24c0-11.749-8.748-19.905-21.341-19.905h-52.403z"/><path d="m2629.61 1021.04c-16.689.615-32.979-5.193-45.515-16.228-12.1-10.858-18.77-26.519-18.214-42.767v-267.805c-.53-15.659 5.615-30.805 16.904-41.669 12.733-11.609 29.475-17.821 46.698-17.327h47.712c19.863 0 37.105 6.551 48.431 18.468 10.683 10.721 16.425 25.404 15.848 40.528v51.389h-50.882v-47.036c0-12.087-9.509-19.905-24.215-19.905h-25.864c-14.58 0-23.623 7.607-23.623 19.905v259.099c0 12.255 9.043 19.905 23.623 19.905h25.864c14.706 0 24.215-7.819 24.215-19.905v-106.623h-41.965v-42.768h92.973v153.744c.732 16.73-6.208 32.881-18.848 43.866-12.791 10.416-28.948 15.796-45.43 15.129z"/><path d="m2979.7 1019.94v-129.022l-75.604-254.577h51.938l50.628 179.861 50.586-179.861h49.107l-75.647 255.084v128.515z"/></g></g></svg>