<svg clip-rule="evenodd" fill-rule="evenodd" stroke-linejoin="round" stroke-miterlimit="2" viewBox="0 0 325 325" xmlns="http://www.w3.org/2000/svg" xmlns:xlink="http://www.w3.org/1999/xlink"><linearGradient id="a" gradientTransform="matrix(243.561 64.5985 -64.5985 243.561 22.4892 124.726)" gradientUnits="userSpaceOnUse" x1="0" x2="1" y1="0" y2="0"><stop offset="0" stop-color="#0f1d4a"/><stop offset=".12" stop-color="#11204d"/><stop offset=".23" stop-color="#172958"/><stop offset=".33" stop-color="#203969"/><stop offset=".42" stop-color="#2e4f82"/><stop offset=".51" stop-color="#3f6ca2"/><stop offset=".6" stop-color="#548fc8"/><stop offset=".6" stop-color="#5692cc"/><stop offset="1" stop-color="#fff"/></linearGradient><linearGradient id="b"><stop offset="0" stop-color="#0f1d4a"/><stop offset=".16" stop-color="#11204d"/><stop offset=".3" stop-color="#172958"/><stop offset=".43" stop-color="#203969"/><stop offset=".55" stop-color="#2e4f82"/><stop offset=".67" stop-color="#3f6ca2"/><stop offset=".79" stop-color="#548fc8"/><stop offset=".8" stop-color="#5692cc"/><stop offset="1" stop-color="#fff"/></linearGradient><linearGradient id="c" gradientTransform="matrix(51.379 38.7402 -38.7402 51.379 162.949 57.2705)" gradientUnits="userSpaceOnUse" x1="0" x2="1" xlink:href="#b" y1="0" y2="0"/><linearGradient id="d" gradientTransform="matrix(216.652 3.80683 -3.80683 216.652 42.5925 126.241)" gradientUnits="userSpaceOnUse" x1="0" x2="1" xlink:href="#b" y1="0" y2="0"/><linearGradient id="e" gradientUnits="userSpaceOnUse" x1="113.333" x2="295.859" xlink:href="#b" y1="98.7492" y2="98.7492"/><g fill-rule="nonzero"><path d="m166.43 1.25c-14.8 14.016-28.923 28.482-42.366 43.4-13.41 14.937-26.06 30.457-37.221 46.66-5.51 7.992-10.545 16.298-15.08 24.878-2.189 4.23-4.237 8.505-5.966 12.807-.455 1.092-.86 2.222-1.292 3.33l-1.286 3.428-.668 1.742-.602 1.681c-.4 1.125-.816 2.238-1.183 3.374-3.066 8.853-5.339 17.96-6.792 27.214-.668 4.423-1.034 8.886-1.095 13.359-.079 4.207.253 8.412.991 12.556l.054.311.082.802c.719 7.009 2.149 13.927 4.27 20.647.235.846.547 1.67.837 2.5l.876 2.495.985 2.451c.34.814.63 1.638 1.013 2.446.733 1.605 1.407 3.237 2.233 4.804l1.188 2.358 1.286 2.321c.821 1.566 1.796 3.051 2.693 4.574.444.77.958 1.491 1.44 2.239s.969 1.485 1.472 2.216c2.059 2.893 4.171 5.754 6.498 8.451.547.677 1.133 1.376 1.724 2.042l1.801 1.976.897.988.942.955 1.872 1.906c.624.638 1.297 1.228 1.943 1.85.646.623 1.286 1.239 1.96 1.818l2.019 1.769 1.008.884 1.04.846 2.085 1.693c.695.546 1.429 1.092 2.14 1.638.712.545 1.418 1.091 2.157 1.594l2.189 1.523c.373.256.734.546 1.095.769l1.133.721 2.261 1.458c.755.475 1.538.911 2.31 1.37.771.459 1.527.939 2.326 1.348 6.277 3.481 12.849 6.404 19.64 8.735.848.295 1.707.546 2.561.819s1.708.546 2.573.797l2.611.671 1.297.355 1.363.311c1.823.421 3.64.836 5.441 1.201l2.709.579 1.352.284 1.33.202c1.779.257 3.553.579 5.337.792l5.376.546c1.8.103 3.607.163 5.408.256.903.066 1.806.038 2.736.027h2.737c7.272-.148 14.517-.941 21.649-2.369l2.687-.579c.898-.191 1.801-.36 2.682-.616 1.768-.481 3.553-.923 5.326-1.431l5.266-1.681c1.735-.617 3.459-1.283 5.2-1.916 13.928-5.482 26.812-13.304 38.091-23.125 5.694-4.998 10.916-10.505 15.6-16.454 1.232-1.453 2.31-3.019 3.427-4.564.547-.775 1.127-1.54 1.669-2.326l1.549-2.407 1.571-2.408c.548-.808.964-1.638 1.451-2.484.93-1.67 1.965-3.308 2.775-5.05l1.292-2.587c.438-.863.892-1.72 1.253-2.615.767-1.774 1.571-3.543 2.31-5.339s1.325-3.652 2.025-5.459c.701-1.807 1.161-3.729 1.752-5.602.137-.474.306-.939.421-1.413l.345-1.431.712-2.866c.547-1.916.848-3.854 1.22-5.803l.548-2.932c.153-.971.29-1.981.438-2.969.284-1.982.574-3.958.739-5.962.29 1.987.481 4.002.629 6.005.066 1.01.142 1.998.197 3.014l.06 3.041c0 2.03.093 4.078-.054 6.108l-.154 3.058-.082 1.534c-.027.513-.109 1.015-.164 1.523-.77 8.228-2.492 16.339-5.129 24.173-.585 2.003-1.406 3.914-2.14 5.874-.389.966-.728 1.96-1.155 2.915l-1.286 2.861-1.308 2.86c-.471.934-.975 1.857-1.462 2.785-.985 1.85-1.938 3.734-3.06 5.508-4.288 7.297-9.309 14.14-14.987 20.423-11.541 12.692-25.361 23.12-40.746 30.746-7.757 3.873-15.874 6.982-24.237 9.28-8.418 2.317-17.038 3.829-25.743 4.515l-3.284.213c-1.095.071-2.19.153-3.284.142-2.19 0-4.379.06-6.569.038l-6.607-.311c-2.189-.164-4.379-.442-6.568-.666l-1.642-.18-1.598-.257-3.197-.546c-1.062-.18-2.14-.338-3.191-.546l-3.153-.595-1.576-.3-1.61-.371-3.229-.753c-1.095-.246-2.135-.546-3.202-.852-1.068-.306-2.135-.573-3.191-.901-8.457-2.584-16.651-5.956-24.473-10.072-7.821-4.136-15.226-9.009-22.114-14.554-6.92-5.542-13.278-11.748-18.983-18.529-2.879-3.373-5.512-6.955-8.068-10.59-.624-.918-1.221-1.857-1.834-2.785s-1.231-1.845-1.79-2.811c-1.133-1.911-2.304-3.822-3.328-5.787-8.627-15.713-13.744-33.101-14.997-50.972l.136 1.092c-.841-5.853-1.101-11.774-.777-17.677.306-5.641 1.014-11.252 2.118-16.793 2.188-10.658 5.407-21.079 9.612-31.117.493-1.245 1.029-2.473 1.566-3.701l.81-1.862.815-1.758 1.643-3.554c.547-1.212 1.094-2.418 1.713-3.635l1.866-3.658c.641-1.201 1.309-2.375 1.965-3.565.657-1.19 1.347-2.342 2.037-3.499.689-1.158 1.368-2.32 2.096-3.44l2.189-3.379 2.239-3.275c.739-1.092 1.522-2.184 2.288-3.276.767-1.092 1.522-2.183 2.327-3.204l2.359-3.156c.799-1.042 1.642-2.063 2.435-3.095 1.604-2.08 3.285-4.067 4.971-6.082 6.781-7.943 13.826-15.569 21.254-22.748 3.682-3.618 7.439-7.148 11.27-10.591 3.832-3.417 7.696-6.824 11.648-10.105 1.965-1.638 3.974-3.248 5.961-4.875s3.996-3.204 6.021-4.766c4.054-3.126 8.161-6.181 12.321-9.166 8.348-5.939 16.876-11.579 25.688-16.732z" fill="url(#a)"/><path d="m236.144 167.5c-8.868-.865-17.521-3.248-25.58-7.044-7.748-3.652-14.871-8.5-21.108-14.367-11.954-11.263-20.493-25.66-24.641-41.545l.219.546c-1.465-4.429-2.586-8.964-3.353-13.564-.77-4.475-1.273-8.911-1.601-13.314-.589-8.698-.654-17.424-.196-26.13.415-8.627 1.234-17.177 2.381-25.645 1.147-8.469 2.616-16.915 4.478-25.187-.453 8.485-.497 16.964-.218 25.399.278 8.436.89 16.861 1.9 25.16.942 8.225 2.379 16.386 4.304 24.439.977 3.967 2.102 7.857 3.418 11.589 1.261 3.636 2.796 7.171 4.593 10.575l.219.545c5.14 11.438 13.404 21.197 23.843 28.155 4.885 3.227 10.25 5.66 15.898 7.208 5.333 1.444 10.876 1.956 16.383 1.511z" fill="url(#c)"/><path d="m295.833 184.957c-2.658 9.038-6.705 17.607-11.994 25.401-5.394 8.025-11.913 15.233-19.355 21.402-7.596 6.293-16.042 11.482-25.087 15.413l-3.47 1.401-1.726.716c-.585.213-1.181.399-1.771.602l-3.546 1.187-1.787.59-1.809.487c-14.603 4.066-29.879 5.118-44.9 3.09-5.028-.649-10.009-1.621-14.913-2.909l-1.847-.493-1.83-.547-1.836-.547-1.82-.601c-1.219-.389-2.421-.837-3.623-1.286-1.202-.448-2.393-.929-3.584-1.411-9.703-3.948-18.726-9.394-26.743-16.14-4.091-3.468-7.866-7.293-11.279-11.432-.879-1.017-1.677-2.117-2.497-3.194l-.59-.788-.546-.776-2.186-3.118-1.038-1.597c-.683-1.094-1.399-2.122-2.05-3.222-5.388-8.777-9.59-18.231-12.497-28.113l-.546-1.866-.47-1.881c-.3-1.264-.656-2.505-.896-3.78l-.771-3.828-.606-3.829c-.719-5.105-1.098-10.252-1.137-15.408.009-5.077.319-10.149.929-15.189.606-4.968 1.489-9.898 2.645-14.768.514-2.428 1.23-4.786 1.858-7.17l1.093-3.517.546-1.761.596-1.729c1.541-4.638 3.333-9.134 5.213-13.564 1.88-4.431 3.967-8.752 6.12-12.958s4.426-8.374 6.814-12.416c4.709-8.118 9.827-15.991 15.333-23.59 1.41-1.882 2.787-3.774 4.229-5.617 1.443-1.844 2.864-3.703 4.372-5.503 2.994-3.599 6.011-7.165 9.224-10.556 6.297-6.832 13.129-13.149 20.431-18.892-5.049 7.772-9.879 15.512-14.311 23.432-2.219 3.96-4.372 7.931-6.437 11.945-2.066 4.015-4.071 8.035-5.984 12.099-3.825 8.133-7.415 16.338-10.726 24.64-3.312 8.303-6.344 16.601-8.896 24.936-.323 1.039-.607 2.084-.913 3.123-.306 1.04-.606 2.073-.874 3.118l-.831 3.112-.743 3.123-.371 1.559-.328 1.559-.656 3.112c-.355 2.084-.781 4.152-1.06 6.225-.672 4.146-1.022 8.281-1.3 12.383l-.126 3.079c-.066 1.023 0 2.04-.033 3.063-.049 2.051.066 4.053.131 6.06.247 3.982.721 7.947 1.421 11.875.713 3.896 1.682 7.74 2.901 11.508.574 1.892 1.279 3.752 1.962 5.617l1.137 2.762c.366.925.825 1.816 1.229 2.735 1.672 3.649 3.564 7.193 5.667 10.611.503.87 1.093 1.712 1.639 2.571l.82 1.28.863 1.258.869 1.258.432.629.42.547c.547.743 1.093 1.504 1.7 2.226 2.362 2.948 4.967 5.692 7.787 8.204 2.888 2.574 5.964 4.929 9.202 7.045 3.315 2.154 6.769 4.087 10.338 5.787 7.324 3.459 15.026 6.051 22.951 7.723 8.031 1.723 16.235 2.513 24.447 2.352 16.851-.411 33.351-4.904 48.087-13.094 7.647-4.244 14.76-9.385 21.191-15.315 6.635-6.151 12.584-13.004 17.742-20.44z" fill="url(#d)"/><path d="m113.333 156.502c6.752 8.854 15.149 16.314 24.728 21.97 2.339 1.371 4.757 2.601 7.242 3.683 2.453 1.095 4.965 2.048 7.526 2.856 2.55.776 5.139 1.419 7.755 1.926 2.594.481 5.215.803 7.848.963 5.218.328 10.456-.001 15.592-.979 2.546-.481 5.061-1.113 7.532-1.893l1.833-.613c.617-.197 1.212-.46 1.812-.684 1.212-.438 2.38-.991 3.558-1.5 9.339-4.37 17.56-10.817 24.041-18.851 8.07-9.975 13.316-21.943 15.188-34.649l.229-1.888.115-.941.071-.947.142-1.888.065-1.932c.154-5.15-.155-10.303-.922-15.398-.826-5.128-2.078-10.178-3.744-15.097-1.674-4.997-3.699-9.868-6.058-14.578-.611-1.177-1.211-2.364-1.839-3.535l-1.943-3.519-4.169-7.365-2.085-3.726-1.054-1.899-1.058-1.965-.29-.547-.141-.285-.159-.322c-.125-.252-.218-.444-.365-.788l-.159-.362-.038-.103c.049.098-.065-.143-.202-.394-.136-.252-.305-.548-.453-.816l-2.024-3.595-26.409-46.841 37.722 37.922c4.824 4.853 9.638 9.756 14.337 14.812 4.699 5.057 9.277 10.266 13.643 15.645s8.591 10.944 12.487 16.778c3.9 5.805 7.473 11.824 10.702 18.03 6.445 12.313 11.541 25.29 15.199 38.704.896 3.344 1.731 6.692 2.44 10.069.355 1.685.704 3.371.999 5.072l.464 2.534.398 2.555c.126.849.267 1.697.382 2.545l.327 2.555c.11.849.224 1.713.312 2.539l.327 2.523c.229 1.696.453 3.409.546 5.138.125 1.723.018 3.455-.317 5.15.006-1.693-.194-3.38-.595-5.024-.371-1.641-.856-3.256-1.359-4.886-.502-1.631-.998-3.284-1.446-4.925l-.693-2.446c-.235-.81-.497-1.642-.742-2.43l-.704-2.419-.791-2.407c-.508-1.609-1.092-3.201-1.638-4.788-1.113-3.178-2.303-6.322-3.569-9.434-4.998-12.383-11.103-24.288-18.239-35.569l-1.337-2.096-1.375-2.073-1.37-2.069-1.414-2.036c-1.882-2.736-3.863-5.357-5.888-7.967-4.039-5.231-8.31-10.293-12.814-15.185-4.505-4.892-9.123-9.704-13.857-14.435-4.73-4.724-9.567-9.389-14.511-13.992l11.313-8.947c.742 1.215 1.49 2.413 2.238 3.699.196.339.371.618.589 1.018.218.399.426.744.769 1.477l.175.411.049.109.088.164.387.717.977 1.729 1.031 1.784 2.096 3.623 4.306 7.25c.355.591.726 1.253 1.091 1.899l1.092 1.948c.709 1.308 1.392 2.627 2.085 3.945 2.719 5.345 5.057 10.877 6.996 16.553 1.939 5.761 3.37 11.681 4.279 17.692.904 6.058 1.202 12.192.889 18.309l-.12 2.293-.223 2.32-.115 1.155-.158 1.154c-.109.767-.213 1.538-.333 2.304-.499 3.053-1.164 6.076-1.992 9.056-.844 2.977-1.863 5.9-3.051 8.756-.546 1.433-1.233 2.823-1.872 4.224l-1.031 2.063-.546 1.029-.546 1.007c-1.473 2.697-3.099 5.307-4.868 7.819-1.781 2.498-3.692 4.9-5.725 7.196-8.149 9.21-18.383 16.325-29.841 20.75-5.696 2.153-11.641 3.571-17.693 4.219-3.005.32-6.028.441-9.049.362-3.007-.06-6.007-.328-8.978-.805-11.724-1.89-22.792-6.686-32.199-13.954-2.31-1.756-4.513-3.649-6.598-5.669-2.085-1.991-4.053-4.101-5.894-6.32-3.64-4.388-6.794-9.158-9.409-14.227z" fill="url(#e)"/></g></svg>