<svg viewBox="0 0 5050 4521" xmlns="http://www.w3.org/2000/svg" fill-rule="evenodd" clip-rule="evenodd" stroke-linejoin="round" stroke-miterlimit="2"><path d="M5050 415.9a1459.704 1459.704 0 0 1-180.542-102.209c-127.527-85.434-242.756-186.777-343.207-301.083-2.745-3.124-613.159.001-611.564 3.881 124.384 301.788 311.315 574.96 549.681 800.678 164.642 155.644 352.672 284.272 557.179 381.155a2035.395 2035.395 0 0 0 28.453 13.201v352.092a1796.837 1796.837 0 0 1-336.923 205.299c-31.251 13.475-62.214 28.109-94.334 39.7-15.915 5.94-31.685 12.895-48.035 18.111l-48.613 16.228a1726.985 1726.985 0 0 1-199.664 50.132 1656.646 1656.646 0 0 1-413.362 25.935 1716.982 1716.982 0 0 1-208.056-25.501 2039.458 2039.458 0 0 1-205.595-51.001 1866.596 1866.596 0 0 1-199.519-75.632 1798.646 1798.646 0 0 1-191.996-97.511c-244.087-143.936-459.227-332.026-634.52-554.598a2774.008 2774.008 0 0 1-28.826-262.453c-1.738-53.249-4.78-106.353-3.477-160.763.87-27.133-.869-54.12.87-81.252l3.331-81.688c7.388-108.819 16.659-218.51 34.476-328.49 7.388-54.99 23.664-130.216 33.08-185.496l-559.971-.001-86.521-2.209s-10.374 41.682-14.833 62.781a3561.452 3561.452 0 0 0-70.111 391.751 3398.078 3398.078 0 0 0-24.626 402.923 3098.347 3098.347 0 0 0 30.13 408.727l16.08 101.565 20.424 101.565c6.374 33.806 15.79 66.743 23.757 100.259l12.458 49.912 14.485 49.477a3095.722 3095.722 0 0 0 331.289 745.777c17.238 29.164 36.214 56.441 54.321 85.46l27.523 42.367 57.943 82.703 14.486 20.603 15.644 20.894c21.729 28.583 42.878 57.747 66.2 84.734a2393.4 2393.4 0 0 0 298.985 303.244c212.522 178.951 451.736 323.428 708.931 428.169 31.579 12.769 63.158 25.537 95.027 37.434 31.868 11.898 63.737 23.796 96.04 34.097l48.237 15.96 48.672 14.51 48.528 14.509 48.961 13.058a3138.775 3138.775 0 0 0 395.316 77.19 2958.738 2958.738 0 0 0 823.788-4.469v823.208H0V.003h5050v415.9zM1064.78 6.301l18.888.003c82.06.03 266.811.409 266.811 5.138-57.981 112.167-112.192 225.492-157.997 339.54-12.031 28.946-22.757 58.906-34.209 88.286l-34.063 90.892-17.684 46.169-15.945 44.577c-10.581 29.815-21.598 59.34-31.309 89.444a4194.393 4194.393 0 0 0-179.885 721.486 2613.308 2613.308 0 0 0-28.99 354.158 1718.885 1718.885 0 0 0 26.236 332.882l1.45 8.249 2.174 21.276a2753.165 2753.165 0 0 0 113.062 547.374c6.233 22.433 14.495 44.288 22.177 66.287l23.193 66.142 26.091 64.984c8.987 21.565 16.669 43.42 26.816 64.84 19.423 42.551 37.252 85.826 59.14 127.364l31.454 62.523 34.064 61.511c21.743 41.538 47.544 80.905 71.316 121.285 11.741 20.407 25.367 39.512 38.122 59.34 12.756 19.828 25.657 39.367 38.992 58.761 54.502 76.708 110.453 152.547 172.057 224.044 14.495 17.947 30.005 36.472 45.66 54.13l47.689 52.392 23.772 26.197 24.932 25.328 49.573 50.511c16.524 16.934 34.353 32.564 51.458 49.064 17.104 16.499 34.063 32.854 51.892 48.195l53.487 46.893 26.671 23.447 27.541 22.433 55.226 44.867c18.409 14.473 37.833 28.946 56.676 43.419 18.844 14.473 37.543 28.947 57.111 42.262l57.981 40.38c9.856 6.802 19.423 14.473 28.99 20.407l30.005 19.105 59.865 38.643c20.003 12.591 40.731 24.17 61.169 36.327 20.438 12.158 40.442 24.894 61.605 35.749 77.086 42.795 236.1 118.752 236.1 118.752s-1280.33 7.444-1293.27 3.758c-140.724-40.084-254.823-242.968-368.136-377.816-76.244-89.444-145.966-184.388-213.658-280.779-16.524-24.315-32.324-49.209-48.558-73.813-16.235-24.604-32.614-48.919-47.4-74.536-30.004-50.656-61.024-101.312-88.13-153.416-226.19-412.403-361.245-868.355-396.14-1337.15l-.61-8.42-.426-3.208a2381.142 2381.142 0 0 1-16.95-442.275 3156.099 3156.099 0 0 1 56.096-445.194A4453.637 4453.637 0 0 1 481.497 493.54c13.045-32.999 27.251-65.564 41.456-98.128l21.453-49.354 21.597-46.603 43.486-94.22c14.495-32.131 28.99-64.116 45.37-96.391l49.428-96.97c12.223-22.949 196.932-5.576 360.494-5.576zM5050 3130.721a2759.187 2759.187 0 0 1-70.241 2.608 2822.92 2822.92 0 0 1-648.091-62.39 2757.002 2757.002 0 0 1-608.401-204.872 2386.42 2386.42 0 0 1-274.069-153.508 2062.829 2062.829 0 0 1-243.94-186.88 1792.269 1792.269 0 0 1-206.421-217.639c-16.08-19.152-30.565-39.32-45.051-59.053l-11.154-14.509-11.444-16.686-23.032-33.371-22.887-33.372-21.729-33.951c-14.486-22.78-30.13-45.124-43.457-68.194a2618.673 2618.673 0 0 1-150.217-281.48c-10.719-24.376-22.887-48.026-32.593-72.547l-30.13-73.272c-18.107-49.476-36.794-98.808-52.004-149.01a2387.49 2387.49 0 0 1-76.919-305.276 2744.36 2744.36 0 0 1-5.948-34.683 2091.45 2091.45 0 0 0 225.503 331.719 1977.88 1977.88 0 0 0 156.259 167.348 1925.618 1925.618 0 0 0 174.923 150.105c249.376 192.431 542.803 319.432 853.635 369.469a1717.43 1717.43 0 0 0 238.005 21.299 1820.58 1820.58 0 0 0 239.886-9.563 1900.054 1900.054 0 0 0 469.065-111.71A2034.168 2034.168 0 0 0 5050 1950.81v1179.91zM187.83 2203.398l.416 5.789.752 5.584c.398 2.93.802 5.86 1.211 8.789l1.244 8.784-3.623-28.946z" fill="#fff"/></svg>