<svg clip-rule="evenodd" fill-rule="evenodd" stroke-linejoin="round" stroke-miterlimit="2" viewBox="0 0 512 512" xmlns="http://www.w3.org/2000/svg"><g fill="#181e49" fill-rule="nonzero" transform="matrix(12.8 0 0 12.8 4.40319 12.54)"><path d="m22.262 19.747h7.892l1.609 2.788 2.344 4.048-3.953 6.843h-7.892l-3.953-6.843zm2.941 1.456c-.939 0-.939 1.456 0 1.456h3.269l1.638 2.832c.473.815 1.733.087 1.26-.728l-1.842-3.196c-.131-.226-.372-.364-.634-.364z"/><path d="m22.262 4.619h7.892l3.953 6.836-3.953 6.836h-7.892l-3.953-6.836zm2.941 1.456c-.939 0-.939 1.456 0 1.456h3.269l1.638 2.832c.473.808 1.733.087 1.26-.728l-1.842-3.196c-.131-.226-.372-.364-.634-.364z"/><path d="m12.099 13.639c-.939 0-.939 1.456 0 1.456h3.269l1.638 2.832c.473.815 1.733.087 1.26-.728l-1.842-3.196c-.131-.226-.372-.364-.634-.364zm-2.941-1.456h7.892l3.946 6.836-3.946 6.836h-7.892l-3.953-6.836z"/><path d="m3.524 19.019.422.728h-3.218c-.939 0-.939-1.456 0-1.456h3.218z"/><path d="m6.283 29.371 1.616-2.788.415.728h.844l-1.609 2.788c-.473.816-1.732.088-1.266-.728z"/><path d="m30.154 3.163 1.609-2.788c.473-.815 1.732-.087 1.266.728l-1.616 2.788-.415-.728z"/><path d="m31.763 37.67-1.609-2.788h.844l.415-.728 1.616 2.788c.466.808-.793 1.536-1.266.728z"/><path d="m21.003 3.891-1.616-2.788c-.466-.815.793-1.543 1.266-.728l1.609 2.788h-.844z"/><path d="m20.653 37.67c-.473.808-1.732.08-1.266-.728l1.616-2.788.415.728h.844z"/><path d="m38.584 25.855c.939 0 .939 1.456 0 1.456h-3.218l.422-.728-.422-.728z"/><path d="m38.584 10.727c.939 0 .939 1.456 0 1.456h-3.218l.422-.728-.422-.728z"/><path d="m7.549 7.939 1.609 2.788h-.844l-.415.728-1.616-2.788c-.466-.816.793-1.544 1.266-.728z"/></g></svg>