<svg clip-rule="evenodd" fill-rule="evenodd" stroke-linejoin="round" stroke-miterlimit="2" viewBox="0 0 512 512" xmlns="http://www.w3.org/2000/svg"><path d="m37.74 25.53-3.519-6.095 2.264-3.945-1.922-1.103-2.263 3.941h-3.071c-.465-1.385-1.774-2.387-3.314-2.387-.229 0-.453.023-.67.066l-1.568-2.664 1.483-2.681c.244.054.496.083.755.083 1.928 0 3.495-1.568 3.495-3.495s-1.567-3.495-3.495-3.495c-.24 0-.475.025-.702.071l-2.176-3.778h-8.315l-3.518 6.094h-5.786l-2.602-4.246-1.89 1.158 2.582 4.213-3.508 6.076 2.246 3.709c-.585.625-.943 1.463-.943 2.385 0 1.927 1.567 3.495 3.495 3.495 1.539 0 2.849-1.002 3.314-2.387h3.092l2.867 4.966-2.939 4.757 1.886 1.165 2.962-4.795h5.769l1.515 2.711c-.525.612-.844 1.406-.844 2.274 0 1.927 1.568 3.495 3.495 3.495 1.54 0 2.849-1.001 3.314-2.386h3.087l2.628 4.368 1.899-1.143-2.614-4.345zm-21.738-23.265h5.756l1.538 2.675c-.544.616-.876 1.425-.876 2.31 0 .866.317 1.658.84 2.269l-1.502 2.716h-3.093c-.465-1.386-1.774-2.387-3.314-2.387-.236 0-.467.024-.69.069l-1.537-2.667zm-4.808 16.063h-3.083c-.464-1.385-1.774-2.387-3.313-2.387-.209 0-.413.02-.611.055l-1.627-2.653 2.877-4.984h5.757l1.54 2.672c-.546.616-.878 1.426-.878 2.312 0 .894.338 1.71.891 2.328zm4.808 6.093-2.878-4.985 1.557-2.663c.217.043.441.066.67.066 1.54 0 2.85-1.002 3.314-2.388h3.093l1.56 2.65c-.558.62-.898 1.439-.898 2.336 0 .87.321 1.666.849 2.278l-1.52 2.706zm16.3 6.094h-3.073c-.464-1.386-1.774-2.387-3.314-2.387-.257 0-.507.028-.748.081l-1.494-2.671 1.508-2.685c.237.051.482.079.734.079 1.54 0 2.85-1.002 3.314-2.387h3.073l2.878 4.985z" fill="#181e49" fill-rule="nonzero" transform="matrix(13.4737 0 0 13.4737 1.7548 5.73735)"/></svg>