<?xml version="1.0" encoding="UTF-8" standalone="no"?>
<!DOCTYPE svg PUBLIC "-//W3C//DTD SVG 1.1//EN" "http://www.w3.org/Graphics/SVG/1.1/DTD/svg11.dtd">
<svg width="100%" height="100%" viewBox="0 0 24 24" version="1.1" xmlns="http://www.w3.org/2000/svg" xmlns:xlink="http://www.w3.org/1999/xlink" xml:space="preserve" xmlns:serif="http://www.serif.com/" style="fill-rule:evenodd;clip-rule:evenodd;stroke-linecap:round;stroke-linejoin:round;">
    <g transform="matrix(1,0,0,1,3,2)">
        <g id="_--Prototype" serif:id="•-Prototype">
            <g id="Create-account">
                <g id="lock">
                    <path id="Rectangle-path" d="M18,11C18,9.896 17.104,9 16,9L2,9C0.896,9 0,9.896 0,11L0,18C0,19.104 0.896,20 2,20L16,20C17.104,20 18,19.104 18,18L18,11Z" style="fill:none;stroke:rgb(155,155,155);stroke-width:2px;"/>
                    <path id="Shape" d="M4,9L4,5C4,2.239 6.239,0 9,0C11.761,0 14,2.239 14,5L14,9" style="fill:none;stroke:rgb(155,155,155);stroke-width:2px;"/>
                </g>
            </g>
        </g>
    </g>
</svg>
