<?xml version="1.0" encoding="UTF-8" standalone="no"?>
<!DOCTYPE svg PUBLIC "-//W3C//DTD SVG 1.1//EN" "http://www.w3.org/Graphics/SVG/1.1/DTD/svg11.dtd">
<svg width="100%" height="100%" viewBox="0 0 24 24" version="1.1" xmlns="http://www.w3.org/2000/svg" xmlns:xlink="http://www.w3.org/1999/xlink" xml:space="preserve" xmlns:serif="http://www.serif.com/" style="fill-rule:evenodd;clip-rule:evenodd;stroke-linecap:round;stroke-linejoin:round;">
    <g transform="matrix(1,0,0,1,2,2)">
        <g id="_--Prototype" serif:id="•-Prototype">
            <g id="Create-account">
                <g id="phone">
                    <path id="Shape" d="M20,14.92L20,17.92C20.002,18.483 19.767,19.021 19.352,19.402C18.937,19.783 18.381,19.971 17.82,19.92C14.743,19.586 11.787,18.534 9.19,16.85C6.774,15.315 4.725,13.266 3.19,10.85C1.5,8.241 0.448,5.271 0.12,2.18C0.069,1.621 0.256,1.066 0.635,0.652C1.013,0.237 1.549,0.001 2.11,-0L5.11,-0C6.114,-0.01 6.97,0.726 7.11,1.72C7.237,2.68 7.471,3.623 7.81,4.53C8.085,5.261 7.909,6.085 7.36,6.64L6.09,7.91C7.514,10.414 9.586,12.486 12.09,13.91L13.36,12.64C13.915,12.091 14.739,11.915 15.47,12.19C16.377,12.529 17.32,12.763 18.28,12.89C19.286,13.032 20.025,13.905 20,14.92Z" style="fill:none;stroke:rgb(155,155,155);stroke-width:2px;"/>
                </g>
            </g>
        </g>
    </g>
</svg>
