<svg clip-rule="evenodd" fill-rule="evenodd" stroke-linecap="round" stroke-linejoin="round" viewBox="0 0 24 24" xmlns="http://www.w3.org/2000/svg"><path d="m20 14.92v3c.002.563-.233 1.101-.648 1.482s-.971.569-1.532.518c-3.077-.334-6.033-1.386-8.63-3.07-2.416-1.535-4.465-3.584-6-6-1.69-2.609-2.742-5.579-3.07-8.67-.051-.559.136-1.114.515-1.528.378-.415.914-.651 1.475-.652h3c1.004-.01 1.86.726 2 1.72.127.96.361 1.903.7 2.81.275.731.099 1.555-.45 2.11l-1.27 1.27c1.424 2.504 3.496 4.576 6 6l1.27-1.27c.555-.549 1.379-.725 2.11-.45.907.339 1.85.573 2.81.7 1.006.142 1.745 1.015 1.72 2.03z" fill="none" stroke="#9b9b9b" stroke-width="2" transform="translate(2 2)"/></svg>