<svg height="22" viewBox="0 0 22 22" width="22" xmlns="http://www.w3.org/2000/svg"><path d="m20 14.92v3c.0022858.5631451-.232952 1.1011584-.6479221 1.4818649s-.971214.5688232-1.5320779.5181351c-3.0771661-.3343592-6.0330008-1.3858555-8.63-3.07-2.41617188-1.5353361-4.46466385-3.5838281-6-6-1.69002194-2.60879602-2.741757-5.57900544-3.07-8.67-.05052679-.55912767.13627201-1.11374758.51476578-1.52837894.37849377-.41463137.91382846-.65109237 1.47523422-.65171938h3c1.00386406-.00978184 1.85950085.7260658 2 1.72009832.12662301.96006645.36144946 1.90272688.7 2.81.274735.73087503.09901507 1.55480626-.45 2.11l-1.27 1.27c1.42355547 2.5035458 3.49645417 4.5764445 6 6l1.27-1.27c.5551937-.5490151 1.379125-.724735 2.11-.45.9072731.3385505 1.8499335.573377 2.81.7 1.0055627.1418603 1.74519 1.0147926 1.72 2.03z" fill="none" stroke="#525252" stroke-linecap="round" stroke-linejoin="round" stroke-width="2" transform="translate(1 1)"/></svg>