<svg enable-background="new 0 0 105 77" viewBox="0 0 105 77" xmlns="http://www.w3.org/2000/svg"><g fill="#fff"><path d="m38.1 63.6c-14.1 0-25.5-11.4-25.5-25.5s11.4-25.5 25.5-25.5 25.5 11.4 25.5 25.5-11.4 25.5-25.5 25.5zm0-48c-12.4 0-22.5 10.1-22.5 22.5s10.1 22.5 22.5 22.5 22.5-10.1 22.5-22.5c0-12.5-10.1-22.5-22.5-22.5z"/><path d="m38.1 75.6c-20.7 0-37.5-16.8-37.5-37.5s16.8-37.5 37.5-37.5c3.3 0 6.6.4 9.9 1.3l.3.1.5.1c.2.1.4.1.6.2l40 11.9c9.2 3.6 15.2 12.4 15.2 22.3 0 9.2-5.1 17.4-13.4 21.5l-.2.1-38 14.3c-1.3.5-2.5 1-3.7 1.4-3.6 1.2-7.4 1.8-11.2 1.8zm0-72c-19 0-34.5 15.4-34.5 34.5s15.5 34.5 34.5 34.5c3.5 0 6.9-.5 10.2-1.5l3.6-1.3c12.6-5.5 20.7-17.9 20.7-31.6 0-15.1-9.7-28.3-24-32.9l-.8-.2c-3.2-1.1-6.4-1.5-9.7-1.5zm25.6 7.1c7.6 7.1 11.9 17.1 11.9 27.4 0 9.4-3.5 18.5-10 25.4l-2 1.8 26.4-9.9c7.2-3.6 11.6-10.8 11.6-18.8 0-8.7-5.2-16.3-13.3-19.5l-27-8.1z"/></g></svg>