<svg width="22" height="33" xmlns="http://www.w3.org/2000/svg" xmlns:xlink="http://www.w3.org/1999/xlink"><defs><path d="M11.04.853c6.038 0 10.934 4.895 10.934 10.934v10.167c0 6.039-4.896 10.935-10.935 10.935C5 32.889.104 27.993.104 21.954V11.787C.104 5.748 5 .853 11.04.853z" id="a"/></defs><g fill="none" fill-rule="evenodd"><use fill-opacity=".404" fill="#ED1C24" style="mix-blend-mode:soft-light" xlink:href="#a"/><path stroke="#ED1C24" stroke-width="2" d="M11.04 1.853a9.903 9.903 0 0 0-7.026 2.91 9.903 9.903 0 0 0-2.91 7.024v10.167a9.903 9.903 0 0 0 2.91 7.025 9.903 9.903 0 0 0 7.025 2.91 9.903 9.903 0 0 0 7.025-2.91 9.903 9.903 0 0 0 2.91-7.025V11.787a9.903 9.903 0 0 0-2.91-7.025 9.903 9.903 0 0 0-7.025-2.91z" stroke-linejoin="square"/><path d="M11.04 7.747a.96.96 0 0 0-.964.963v5.281a.96.96 0 0 0 .963.963.96.96 0 0 0 .963-.963V8.71a.96.96 0 0 0-.963-.963z" stroke="#ED1C24" stroke-width="2" fill="#D8D8D8"/></g></svg>