<svg viewBox="0 0 160.75 43.01" xmlns="http://www.w3.org/2000/svg"><g fill="#fff"><path d="m18.66 16.25a24.61 24.61 0 0 0 -7-3.18c-.66-.15-2.66-.89-2.66-4.17a3 3 0 0 1 3.07-2.9h7.93a3 3 0 0 0 0-6h-7.93a9.05 9.05 0 0 0 -9.07 8.79v.21c0 6.6 4.72 9.36 7.31 9.92.83.22 9.69 2.77 9.69 10.08 0 6.7-6 7.84-7.18 8h-9.82a3 3 0 0 0 0 6h10.15.15c4.39-.45 12.7-3.94 12.7-14 0-5.14-2.54-9.55-7.34-12.75z"/><path d="m143.22 24.22h7.6.51c3.6-.61 10.19-4 9.34-12.52-.81-8.17-6.67-11.2-9.67-11.7h-25v39.43a3 3 0 0 0 3.16 3 3.12 3.12 0 0 0 2.84-3.17v-33.26h18.18c.77.2 4 1.31 4.48 6.25a5.14 5.14 0 0 1 -4.18 6h-14.8a3.09 3.09 0 0 0 -2.82 1.91 3 3 0 0 0 .63 3.26l20.16 18.68a3 3 0 0 0 2 .8 3 3 0 0 0 2.3-1.08 3.11 3.11 0 0 0 -.38-4.23z"/><path d="m101.59 0h-.16-.17-25.6a11.83 11.83 0 0 0 -2.75.31c-8.32 1.95-16.9 8.6-16 21.39a22 22 0 0 0 7.09 15.3h-17.88c-1.77-.28-10.68-2.17-12-11.5h15.46a3 3 0 0 0 0-6h-15.33c1.3-7.4 6.38-10.89 10.62-12.5a15 15 0 0 1 5.32-1 3 3 0 0 0 0-6 20.86 20.86 0 0 0 -7.44 1.38c-5.17 1.97-13.92 7.19-14.75 19.93-1 15.2 11 20.82 17.5 21.69h31.82a3 3 0 0 0 0-6h-.15c-1.34-.2-13.44-2.5-14.32-15.7-.74-11.08 7.75-14.3 11.43-15.15a6.08 6.08 0 0 1 1.38-.15h25.6.17.16a15.48 15.48 0 1 1 -12.85 6.85 3 3 0 0 0 -5-3.35 21.48 21.48 0 1 0 17.85-9.5z"/></g></svg>