<svg xmlns="http://www.w3.org/2000/svg" viewBox="0 0 160.75 43.01"><title>OLD-temporary</title><path d="M18.66,16.25a24.61,24.61,0,0,0-7-3.18C11,12.92,9,12.18,9,8.9A3,3,0,0,1,12.07,6H20a3,3,0,0,0,0-6H12.07A9.05,9.05,0,0,0,3,8.79V9c0,6.6,4.72,9.36,7.31,9.92C11.14,19.14,20,21.69,20,29c0,6.7-6,7.84-7.18,8H3a3,3,0,0,0,0,6H13.15l.15,0C17.69,42.55,26,39.06,26,29,26,23.86,23.46,19.45,18.66,16.25Z" style="fill:#fff"/><path d="M143.22,24.22h7.6l.51,0c3.6-.61,10.19-4,9.34-12.52C159.86,3.53,154,.5,151,0L126,0V39.43a3,3,0,0,0,3.16,3A3.12,3.12,0,0,0,132,39.26V6h18.18c.77.2,4,1.31,4.48,6.25a5.14,5.14,0,0,1-4.18,6h-14.8a3.09,3.09,0,0,0-2.82,1.91,3,3,0,0,0,.63,3.26h0L153.65,42.1a3,3,0,0,0,2,.8,3,3,0,0,0,2.3-1.08,3.11,3.11,0,0,0-.38-4.23Z" style="fill:#fff"/><path d="M101.59,0l-.16,0-.17,0H75.66a11.83,11.83,0,0,0-2.75.31c-8.32,1.95-16.9,8.6-16,21.39A22,22,0,0,0,64,37H46.12c-1.77-.28-10.68-2.17-12-11.5H49.58a3,3,0,0,0,0-6H34.25C35.55,12.1,40.63,8.61,44.87,7a15,15,0,0,1,5.32-1,3,3,0,0,0,0-6h0a20.86,20.86,0,0,0-7.44,1.38C37.58,3.35,28.83,8.57,28,21.31,27,36.51,39,42.13,45.5,43l31.82,0a3,3,0,0,0,0-6h-.15C75.83,36.8,63.73,34.5,62.85,21.3,62.11,10.22,70.6,7,74.28,6.15A6.08,6.08,0,0,1,75.66,6h25.6l.17,0,.16,0a15.48,15.48,0,1,1-12.85,6.85,3,3,0,0,0-5-3.35A21.48,21.48,0,1,0,101.59,0Z" style="fill:#fff"/></svg>