<svg clip-rule="evenodd" fill-rule="evenodd" stroke-linejoin="round" stroke-miterlimit="2" viewBox="0 0 512 512" xmlns="http://www.w3.org/2000/svg"><g fill="#181e49" fill-rule="nonzero" transform="matrix(11.907 0 0 11.907 3.579708573 3.579708573)"><path d="m29.646 23.567v-1.89l-1.272 1.89z"/><path d="m23.14 18.767c-.631 0-1.14.217-1.527.649-.386.433-.579 1.087-.579 1.959 0 .859.198 1.511.595 1.954s.901.665 1.511.665c.611 0 1.112-.22 1.504-.66s.587-1.1.587-1.979c0-.87-.19-1.519-.572-1.946-.381-.428-.887-.642-1.519-.642z"/><path d="m36.436 30.474c-.661 0-1.286.134-1.881.333l-3.272-3.271c1.159-1.839 1.841-4.007 1.841-6.337 0-2.329-.682-4.498-1.841-6.336l3.272-3.272c.595.2 1.22.334 1.881.334 3.288 0 5.963-2.675 5.963-5.963 0-3.287-2.675-5.962-5.963-5.962-3.287 0-5.962 2.675-5.962 5.962 0 .662.134 1.287.333 1.882l-3.271 3.272c-1.839-1.16-4.007-1.841-6.337-1.841-2.329 0-4.498.681-6.336 1.841l-3.272-3.272c.2-.595.334-1.22.334-1.882 0-3.287-2.675-5.962-5.963-5.962-3.287 0-5.962 2.675-5.962 5.962 0 3.288 2.675 5.963 5.962 5.963.662 0 1.287-.134 1.882-.334l3.272 3.272c-1.16 1.838-1.841 4.007-1.841 6.336 0 2.33.681 4.498 1.841 6.337l-3.272 3.271c-.595-.199-1.22-.333-1.882-.333-3.287 0-5.962 2.675-5.962 5.962 0 3.288 2.675 5.963 5.962 5.963 3.288 0 5.963-2.675 5.963-5.963 0-.661-.134-1.286-.334-1.881l3.272-3.272c1.838 1.159 4.007 1.841 6.336 1.841 2.33 0 4.498-.682 6.337-1.841l3.271 3.272c-.199.595-.333 1.22-.333 1.881 0 3.288 2.675 5.963 5.962 5.963 3.288 0 5.963-2.675 5.963-5.963 0-3.287-2.675-5.962-5.963-5.962zm-18.321-6.288c-.242.38-.584.662-1.025.846s-.992.277-1.651.277c-.959 0-1.696-.222-2.21-.665s-.822-1.09-.921-1.938l1.49-.145c.089.5.272.867.546 1.102.275.235.645.352 1.11.352.493 0 .866-.104 1.116-.313s.375-.453.375-.733c0-.179-.053-.331-.158-.458-.105-.126-.288-.235-.551-.328-.18-.062-.589-.173-1.227-.332-.821-.203-1.397-.453-1.728-.75-.466-.417-.699-.926-.699-1.527 0-.386.11-.748.329-1.084.218-.337.534-.593.947-.769.412-.176.909-.264 1.493-.264.952 0 1.669.209 2.15.627.482.417.734.974.759 1.671l-1.532.068c-.066-.39-.206-.671-.422-.841-.216-.171-.54-.257-.971-.257-.445 0-.793.092-1.045.275-.162.117-.243.274-.243.471 0 .179.076.333.227.46.193.163.663.332 1.408.508s1.297.357 1.654.546c.357.188.636.445.838.771s.303.729.303 1.208c0 .435-.12.842-.362 1.222zm7.701.08c-.666.692-1.557 1.038-2.671 1.038-1.128 0-2.025-.345-2.691-1.033s-.999-1.636-.999-2.844c0-.773.115-1.421.347-1.946.172-.386.408-.733.706-1.04.299-.308.625-.535.981-.684.472-.199 1.019-.3 1.636-.3 1.118 0 2.012.347 2.683 1.041.672.693 1.007 1.658 1.007 2.893 0 1.225-.333 2.183-.999 2.875zm4.856.233v1.113h-1.026v-1.113h-2.263v-.928l2.399-3.512h.89v3.508h.686v.932z"/></g></svg>