<svg width="145" height="68" xmlns="http://www.w3.org/2000/svg"><g transform="translate(.339 .398)" fill="none"><path d="M3.969 19.37l1.122-6.948h5.31c1.756 0 2.633-.677 2.631-2.031a1.836 1.836 0 0 0-.279-1.056 1.95 1.95 0 0 0-.777-.633 3.414 3.414 0 0 0-1.122-.3 13.14 13.14 0 0 0-1.317-.063c-.807.002-1.614.052-2.415.15-.837.102-1.662.231-2.484.39a32.01 32.01 0 0 0-2.352.54 42.38 42.38 0 0 0-2.028.6l.948-7.251c1.5-.556 3.046-.98 4.62-1.266a27.825 27.825 0 0 1 5.136-.477 19.872 19.872 0 0 1 4.617.498c1.267.284 2.473.792 3.561 1.5a7.11 7.11 0 0 1 2.31 2.46 6.975 6.975 0 0 1 .819 3.453v.561a6.726 6.726 0 0 1-1.056 3.69 7.332 7.332 0 0 1-3.129 2.655 7.299 7.299 0 0 1 3.345 2.655 6.7 6.7 0 0 1 1.23 3.864v.6a8.365 8.365 0 0 1-.69 3.387 7.155 7.155 0 0 1-2.16 2.742 10.851 10.851 0 0 1-3.753 1.812c-1.786.48-3.632.705-5.481.669-.837 0-1.734-.042-2.7-.129a45.281 45.281 0 0 1-2.847-.345 26.616 26.616 0 0 1-2.721-.561A20.7 20.7 0 0 1 0 29.801l1.251-6.819c1.511.456 3.055.797 4.617 1.02 1.215.18 2.44.28 3.669.3 1.467 0 2.484-.207 3.042-.627.57-.432.886-1.12.843-1.833 0-.864-.281-1.49-.843-1.878-.558-.387-1.401-.582-2.523-.582l-6.087-.012zm33.666 3.063c1.554.488 3.141.863 4.749 1.122a26.7 26.7 0 0 0 3.927.3c1.323 0 2.289-.15 2.892-.453.594-.291.95-.915.9-1.575a2.16 2.16 0 0 0-.195-1.014 1.398 1.398 0 0 0-.516-.561 2.784 2.784 0 0 0-.756-.3c-.3-.072-.6-.135-.9-.195l-2.775-.516a12.567 12.567 0 0 1-3.432-1.122 9.99 9.99 0 0 1-2.631-1.899 7.902 7.902 0 0 1-1.707-2.634 8.892 8.892 0 0 1-.6-3.324v-.474a9.759 9.759 0 0 1 .927-4.404 8.031 8.031 0 0 1 2.643-3.042 12.123 12.123 0 0 1 4.101-1.77 22.842 22.842 0 0 1 5.373-.57 31.479 31.479 0 0 1 4.941.387 24.3 24.3 0 0 1 4.554 1.167l-1.554 7.251a27.522 27.522 0 0 0-4.143-.9c-1.13-.16-2.27-.247-3.411-.258-1.41 0-2.41.143-3 .429-.581.266-.94.862-.9 1.5-.01.471.228.913.627 1.164.63.365 1.327.6 2.049.693l2.505.474c1.398.255 2.756.698 4.035 1.317a8.982 8.982 0 0 1 2.7 2.007 7.29 7.29 0 0 1 1.5 2.655c.323 1.04.483 2.124.474 3.213v.432a10.461 10.461 0 0 1-.9 4.533 7.983 7.983 0 0 1-2.655 3.129 12.048 12.048 0 0 1-4.251 1.8 24.942 24.942 0 0 1-5.655.582 32.292 32.292 0 0 1-5.1-.429 29.499 29.499 0 0 1-5.4-1.425l1.584-7.29z" fill="#181E49"/><path fill="#181E49" d="M85.329 0.422007558L84.465 7.58600756 72.81 7.58600756 72.81 11.8580076 84.078 11.8580076 83.214 19.0250076 72.81 19.0250076 72.81 24.0020076 85.329 24.0020076 84.465 31.1690076 63.231 31.1690076 63.231 0.422007558z"/><path d="M106.692 25.502h-8.07l-1.425 5.655H87.66L97.326.422h10.935l9.972 30.732h-10.158l-1.383-5.652zm-6.3-6.993h4.569l-2.244-9.063-2.325 9.063zm20.889 3.924c1.554.488 3.141.863 4.749 1.122a26.7 26.7 0 0 0 3.927.3c1.324 0 2.288-.151 2.892-.453.594-.291.95-.915.9-1.575a2.199 2.199 0 0 0-.195-1.014 1.377 1.377 0 0 0-.516-.561 2.784 2.784 0 0 0-.756-.3c-.3-.072-.6-.135-.9-.195l-2.763-.516a12.6 12.6 0 0 1-3.432-1.122 9.99 9.99 0 0 1-2.631-1.899 7.902 7.902 0 0 1-1.707-2.634 8.892 8.892 0 0 1-.6-3.324v-.474a9.759 9.759 0 0 1 .912-4.404 8.031 8.031 0 0 1 2.634-3.042 12.135 12.135 0 0 1 4.098-1.77 22.887 22.887 0 0 1 5.388-.57 31.479 31.479 0 0 1 4.941.387 24.3 24.3 0 0 1 4.554 1.167l-1.554 7.251a27.444 27.444 0 0 0-4.143-.9c-1.13-.16-2.27-.247-3.411-.258-1.41 0-2.41.143-3 .429-.576.27-.927.866-.885 1.5-.01.471.228.913.627 1.164.63.365 1.327.6 2.049.693l2.505.474c1.398.255 2.756.698 4.035 1.317a8.982 8.982 0 0 1 2.7 2.007 7.29 7.29 0 0 1 1.5 2.655c.323 1.04.483 2.124.474 3.213v.432a10.461 10.461 0 0 1-.9 4.533 7.983 7.983 0 0 1-2.655 3.129 12.048 12.048 0 0 1-4.251 1.8 24.96 24.96 0 0 1-5.655.582 32.292 32.292 0 0 1-5.1-.429 29.562 29.562 0 0 1-5.4-1.425l1.569-7.29z" fill="#181E49"/><path fill="#E11F26" d="M1.329 66.8900076L1.329 39.6590076 12.168 39.6590076 12.168 42.7430076 4.95 42.7430076 4.95 51.3650076 11.025 51.3650076 11.025 54.4100076 4.95 54.4100076 4.95 63.8450076 12.168 63.8450076 12.168 66.8900076z"/><path fill="#E11F26" d="M34.773 66.8900076L28.533 48.6830076 28.533 48.7910076 28.533 57.7910076 28.533 66.8900076 24.912 66.8900076 24.912 39.6590076 28.833 39.6590076 35.073 57.8120076 35.073 57.7010076 35.073 49.6460076 35.07 39.6590076 38.694 39.6590076 38.694 66.8900076z"/><path fill="#E11F26" d="M53.718 66.8900076L53.718 39.6590076 64.557 39.6590076 64.557 42.7430076 57.339 42.7430076 57.339 51.3650076 63.414 51.3650076 63.414 54.4100076 57.339 54.4100076 57.339 63.8450076 64.557 63.8450076 64.557 66.8900076z"/><path d="M87.114 66.902L83.4 55.346h-2.478v11.556h-3.621V39.659h8.238a4.449 4.449 0 0 1 3.027 1.2 3.867 3.867 0 0 1 1.2 2.958v6.9a3.984 3.984 0 0 1-1.2 3 4.587 4.587 0 0 1-1.389.786l-.321.117 4.086 12.282h-3.828zm-6.192-14.601H84.6a1.473 1.473 0 0 0 1.557-1.455v-6.69c0-.834-.621-1.413-1.515-1.413h-3.72v9.558zm27.588 14.667a4.632 4.632 0 0 1-3.231-1.152 3.9 3.9 0 0 1-1.293-3.036V43.769a3.921 3.921 0 0 1 1.2-2.958 4.719 4.719 0 0 1 3.315-1.23h3.387c1.41 0 2.634.465 3.438 1.311a3.867 3.867 0 0 1 1.125 2.877v3.648h-3.612v-3.339c0-.858-.675-1.413-1.719-1.413h-1.836c-1.035 0-1.677.54-1.677 1.413v18.393c0 .87.642 1.413 1.677 1.413h1.836c1.044 0 1.719-.555 1.719-1.413v-7.569h-2.979v-3.036h6.6V62.78a3.9 3.9 0 0 1-1.338 3.114 4.8 4.8 0 0 1-3.225 1.074h-3.387z" fill="#E11F26"/><path fill="#E11F26" d="M133.362 66.8900076L133.362 57.7310076 127.995 39.6590076 131.682 39.6590076 135.276 52.4270076 138.867 39.6590076 142.353 39.6590076 136.983 57.7670076 136.983 66.8900076z"/></g></svg>