<svg clip-rule="evenodd" fill-rule="evenodd" stroke-linejoin="round" stroke-miterlimit="2" viewBox="0 0 512 512" xmlns="http://www.w3.org/2000/svg"><g fill="#181e49" fill-rule="nonzero" transform="scale(12.1905)"><path d="m20.966 0c-11.588 0-20.966 9.377-20.966 20.966s9.377 20.967 20.966 20.967 20.967-9.378 20.967-20.967c0-11.588-9.378-20.966-20.967-20.966zm0 37.654c-9.2 0-16.687-7.489-16.687-16.688 0-9.201 7.486-16.687 16.687-16.687 9.202 0 16.688 7.486 16.688 16.687 0 9.187-7.468 16.688-16.688 16.688z"/><path d="m20.966 21.358c-.579 0-1.051.471-1.051 1.051s.472 1.052 1.051 1.052c.58 0 1.052-.472 1.052-1.052s-.472-1.051-1.052-1.051z"/><path d="m20.966 6.846c-7.786 0-14.12 6.334-14.12 14.12 0 2.968.921 5.725 2.492 8.001 1.047.497 2.496.458 3.479-.118 1.854-1.085 4.444-1.085 6.298 0 1.055.618 2.647.618 3.703 0 1.854-1.085 4.444-1.085 6.298 0 .983.576 2.432.615 3.479.118 1.57-2.276 2.492-5.033 2.492-8.001 0-7.786-6.335-14.12-14.121-14.12zm2.439 7.626c.709 0 1.284.574 1.284 1.283s-.575 1.284-1.284 1.284h-1.155v1.987c1.363.519 2.335 1.84 2.335 3.383 0 1.996-1.623 3.619-3.619 3.619-1.995 0-3.618-1.623-3.618-3.619 0-1.543.971-2.863 2.335-3.383v-8.592c0-.709.574-1.284 1.283-1.284s1.284.575 1.284 1.284v.538h1.155c.709 0 1.284.575 1.284 1.284s-.575 1.284-1.284 1.284h-1.155v.932z"/><path d="m27.818 31.065c-1.055-.618-2.647-.618-3.703 0-1.854 1.085-4.443 1.085-6.297 0-1.056-.618-2.648-.618-3.704 0-.657.384-1.406.632-2.182.744 2.45 2.045 5.601 3.278 9.034 3.278 3.434 0 6.585-1.233 9.035-3.278-.776-.112-1.526-.36-2.183-.744z"/></g></svg>