<?xml version="1.0" encoding="UTF-8"?> <!-- Generator: Adobe Illustrator 23.0.2, SVG Export Plug-In . SVG Version: 6.00 Build 0) --> <svg xmlns="http://www.w3.org/2000/svg" xmlns:xlink="http://www.w3.org/1999/xlink" id="Layer_1" x="0px" y="0px" viewBox="0 0 120 87" style="enable-background:new 0 0 120 87;" xml:space="preserve"> <style type="text/css"> .st0{fill:#FFFFFF;} </style> <title>75317F5F-2F04-46D3-8954-B094D20AF1BD</title> <desc>Created with sketchtool.</desc> <g> <g id="About" transform="translate(-382.000000, -3615.000000)"> <g transform="translate(382.000000, 3615.000000)"> <path class="st0" d="M60,85.8c-6.4,0-12.5-2.9-16.6-7.8l-0.1-0.2h-7.8v2.5c0,3-2.5,5.5-5.5,5.5s-5.5-2.5-5.5-5.5v-2.5h-24v-27h24 v-2.5c0-3,2.5-5.5,5.5-5.5c3,0,5.5,2.5,5.5,5.5v2.5h7.8l0.2-0.2c1.1-1.3,2.3-2.5,3.7-3.5c0.4-0.3,0.8-0.6,1.2-0.8l0.2-0.1V35.7 H44c-3,0-5.5-2.5-5.5-5.5c0-3,2.5-5.5,5.5-5.5h8.5v-5H48c-0.8,0-1.5-0.7-1.5-1.5v-6.5H34c-3,0-5.5-2.5-5.5-5.5S31,0.7,34,0.7h52 c3,0,5.5,2.5,5.5,5.5S89,11.7,86,11.7H73.5v6.5c0,0.8-0.7,1.5-1.5,1.5h-4.5v5H76c3,0,5.5,2.5,5.5,5.5c0,3-2.5,5.5-5.5,5.5h-4.5 v10.4l0.2,0.1c0.4,0.3,0.8,0.5,1.2,0.8c1.4,1,2.6,2.2,3.7,3.5l0.2,0.2h7.8v-2.5c0-3,2.5-5.5,5.5-5.5c3,0,5.5,2.5,5.5,5.5v2.5h24 v27h-24v2.5c0,3-2.5,5.5-5.5,5.5s-5.5-2.5-5.5-5.5v-2.5h-7.8l-0.1,0.2c-0.9,1.1-1.9,2-2.9,2.9C69.8,84,65,85.8,60,85.8z M35.5,74.7H44c0.5,0,0.9,0.2,1.2,0.6c1.1,1.4,2.3,2.7,3.7,3.7c3.2,2.4,7,3.7,11,3.7c5.9,0,11.3-2.7,14.8-7.4 c0.3-0.4,0.7-0.6,1.2-0.6h8.5v-21H76c-0.5,0-0.9-0.2-1.2-0.6c-1-1.4-2.3-2.6-3.7-3.7c-0.6-0.4-1.2-0.9-1.8-1.2 c-0.5-0.3-0.8-0.8-0.8-1.3V35.7h-17v11.2c0,0.5-0.3,1-0.8,1.3c-2.2,1.2-4,2.9-5.5,4.9c-0.3,0.4-0.7,0.6-1.2,0.6h-8.5V74.7z M90,45.7c-0.6,0-1.3,0.3-1.7,0.7c-0.5,0.4-0.8,1.1-0.8,1.8v32c0,1.4,1.1,2.5,2.5,2.5s2.5-1.1,2.5-2.5v-32 C92.5,46.9,91.4,45.7,90,45.7L90,45.7z M30,45.7c-1.4,0-2.5,1.1-2.5,2.5v32c0,1.4,1.1,2.5,2.5,2.5s2.5-1.1,2.5-2.5v-32 c0-0.6-0.3-1.3-0.7-1.7C31.3,46,30.7,45.7,30,45.7L30,45.7z M95.5,74.7h21v-21h-21V74.7z M3.5,74.7h21v-21h-21V74.7z M44,27.7 c-0.6,0-1.3,0.3-1.7,0.7c-0.5,0.4-0.8,1.1-0.8,1.8c0,1.4,1.1,2.5,2.5,2.5h32c0.7,0,1.3-0.3,1.7-0.7c0.5-0.4,0.8-1.1,0.8-1.8 c0-1.4-1.1-2.5-2.5-2.5H44z M55.5,24.7h9v-5h-9V24.7z M49.5,16.7h21v-5h-21V16.7z M34,3.7c-1.4,0-2.5,1.1-2.5,2.5 s1.1,2.5,2.5,2.5h52c1.4,0,2.5-1.1,2.5-2.5S87.4,3.7,86,3.7H34z"></path> </g> </g> </g> </svg> 