<svg enable-background="new 0 0 120 87" viewBox="0 0 120 87" xmlns="http://www.w3.org/2000/svg"><path d="m60 85.8c-6.4 0-12.5-2.9-16.6-7.8l-.1-.2h-7.8v2.5c0 3-2.5 5.5-5.5 5.5s-5.5-2.5-5.5-5.5v-2.5h-24v-27h24v-2.5c0-3 2.5-5.5 5.5-5.5s5.5 2.5 5.5 5.5v2.5h7.8l.2-.2c1.1-1.3 2.3-2.5 3.7-3.5.4-.3.8-.6 1.2-.8l.2-.1v-10.5h-4.6c-3 0-5.5-2.5-5.5-5.5s2.5-5.5 5.5-5.5h8.5v-5h-4.5c-.8 0-1.5-.7-1.5-1.5v-6.5h-12.5c-3 0-5.5-2.5-5.5-5.5s2.5-5.5 5.5-5.5h52c3 0 5.5 2.5 5.5 5.5s-2.5 5.5-5.5 5.5h-12.5v6.5c0 .8-.7 1.5-1.5 1.5h-4.5v5h8.5c3 0 5.5 2.5 5.5 5.5s-2.5 5.5-5.5 5.5h-4.5v10.4l.2.1c.4.3.8.5 1.2.8 1.4 1 2.6 2.2 3.7 3.5l.2.2h7.8v-2.5c0-3 2.5-5.5 5.5-5.5s5.5 2.5 5.5 5.5v2.5h24v27h-24v2.5c0 3-2.5 5.5-5.5 5.5s-5.5-2.5-5.5-5.5v-2.5h-7.8l-.1.2c-.9 1.1-1.9 2-2.9 2.9-4 3.2-8.8 5-13.8 5zm-24.5-11.1h8.5c.5 0 .9.2 1.2.6 1.1 1.4 2.3 2.7 3.7 3.7 3.2 2.4 7 3.7 11 3.7 5.9 0 11.3-2.7 14.8-7.4.3-.4.7-.6 1.2-.6h8.5v-21h-8.4c-.5 0-.9-.2-1.2-.6-1-1.4-2.3-2.6-3.7-3.7-.6-.4-1.2-.9-1.8-1.2-.5-.3-.8-.8-.8-1.3v-11.2h-17v11.2c0 .5-.3 1-.8 1.3-2.2 1.2-4 2.9-5.5 4.9-.3.4-.7.6-1.2.6h-8.5zm54.5-29c-.6 0-1.3.3-1.7.7-.5.4-.8 1.1-.8 1.8v32c0 1.4 1.1 2.5 2.5 2.5s2.5-1.1 2.5-2.5v-32c0-1.3-1.1-2.5-2.5-2.5zm-60 0c-1.4 0-2.5 1.1-2.5 2.5v32c0 1.4 1.1 2.5 2.5 2.5s2.5-1.1 2.5-2.5v-32c0-.6-.3-1.3-.7-1.7-.5-.5-1.1-.8-1.8-.8zm65.5 29h21v-21h-21zm-92 0h21v-21h-21zm40.5-47c-.6 0-1.3.3-1.7.7-.5.4-.8 1.1-.8 1.8 0 1.4 1.1 2.5 2.5 2.5h32c.7 0 1.3-.3 1.7-.7.5-.4.8-1.1.8-1.8 0-1.4-1.1-2.5-2.5-2.5zm11.5-3h9v-5h-9zm-6-8h21v-5h-21zm-15.5-13c-1.4 0-2.5 1.1-2.5 2.5s1.1 2.5 2.5 2.5h52c1.4 0 2.5-1.1 2.5-2.5s-1.1-2.5-2.5-2.5z" fill="#fff"/></svg>